<svg id="Group_939" data-name="Group 939" xmlns="http://www.w3.org/2000/svg" width="13.124" height="16.444" viewBox="0 0 13.124 16.444">
  <path id="Path_802" data-name="Path 802" d="M350.039,4673.833a6.431,6.431,0,0,1,2.008.5,1.716,1.716,0,0,0,1.272-.015,9.723,9.723,0,0,1,1.471-.442,3.437,3.437,0,0,1,2.858.689,8.694,8.694,0,0,1,.852.773.345.345,0,0,1-.052.588,4.339,4.339,0,0,0-1,1.009,2.706,2.706,0,0,0,.305,3.455,9.612,9.612,0,0,0,1.068.865c.253.191.3.3.171.587a12.675,12.675,0,0,1-1.584,2.747,5.564,5.564,0,0,1-.64.666,2.273,2.273,0,0,1-2.328.487c-.339-.109-.673-.234-1.008-.356a1.824,1.824,0,0,0-1.3.01,11.291,11.291,0,0,1-1.2.393,2.4,2.4,0,0,1-2.323-.673,6.687,6.687,0,0,1-1.312-1.86,12.136,12.136,0,0,1-1.244-3.448,5.49,5.49,0,0,1,1.334-4.9A3.237,3.237,0,0,1,350.039,4673.833Zm7.742,1.735c-.186-.154-.357-.31-.542-.446a2.8,2.8,0,0,0-2.354-.559,13.989,13.989,0,0,0-1.515.468,2,2,0,0,1-1.332.026,15.1,15.1,0,0,0-1.665-.476,2.5,2.5,0,0,0-2.474.791,5.126,5.126,0,0,0-.952,1.536,4.854,4.854,0,0,0-.211,2.76,11.265,11.265,0,0,0,1.333,3.584,5.277,5.277,0,0,0,1.111,1.447,1.69,1.69,0,0,0,1.687.393c.31-.094.621-.191.921-.311a2.6,2.6,0,0,1,2.021.005c.25.1.507.185.762.276a1.667,1.667,0,0,0,1.827-.393c.106-.1.212-.2.308-.312a11.142,11.142,0,0,0,1.533-2.532c.044-.091-.009-.119-.066-.167a11.925,11.925,0,0,1-.957-.825,3.4,3.4,0,0,1-.477-4.082A4.573,4.573,0,0,1,357.781,4675.567Z" transform="translate(-345.938 -4669.431)" fill="#fff"/>
  <path id="Path_803" data-name="Path 803" d="M537.55,4543.425c-.121-.009-.213-.012-.3-.022a.336.336,0,0,1-.314-.349,3.535,3.535,0,0,1,.983-2.632,3.748,3.748,0,0,1,2.161-1.192.7.7,0,0,1,.4.045.409.409,0,0,1,.155.279,3.014,3.014,0,0,1-.447,2.08,3.551,3.551,0,0,1-2.167,1.716A4.5,4.5,0,0,1,537.55,4543.425Zm.093-.723a2.917,2.917,0,0,0,2.315-2.734A3.056,3.056,0,0,0,537.643,4542.7Z" transform="translate(-530.724 -4539.219)" fill="#fff"/>
</svg>
