<svg xmlns="http://www.w3.org/2000/svg" width="124.76" height="150.933" viewBox="0 0 124.76 150.933">
  <g id="Group_3507" data-name="Group 3507" transform="translate(-475.24 -1187.635)">
    <path id="Path_4721" data-name="Path 4721" d="M565.48,276.9v5.447H546.289c0-1.587-.035-3.2.04-4.8.011-.228.558-.617.859-.619C553.227,276.888,559.267,276.9,565.48,276.9Z" transform="translate(-16.549 918.956)" fill="#007adb"/>
    <g id="Group_3506" data-name="Group 3506">
      <path id="Path_4692" data-name="Path 4692" d="M407.973,320.515a121.15,121.15,0,0,1-9.071-8.338,4.159,4.159,0,0,1-.518-5.959c1.572-1.716,3.986-1.762,5.966-.014,2.227,1.963,4.387,4,6.738,6.153,0-2.724.8-5.571-.2-7.46a11.315,11.315,0,0,0-6.97-5.332,9.612,9.612,0,0,0-11.03,4.867c-.081.148-.162.3-.236.448s-.152.31-.226.469a14.608,14.608,0,0,0-.729,2c-.018.06-.032.12-.046.176v3.439c1,4.116,4.461,6.213,7.207,8.859,3.425,3.295,6.96,6.481,10.477,9.684a6.115,6.115,0,0,0,1.445.733,9.577,9.577,0,0,0,.518-1.565A7.9,7.9,0,0,0,407.973,320.515Z" transform="translate(83.59 904.489)" fill="#007adb"/>
      <path id="Path_4694" data-name="Path 4694" d="M563.747,490.224c-1.367,1.188-2.675,2.326-4.148,3.605-2.354-2.685-4.631-5.265-6.889-7.862-2.622-3.013-5.223-6.04-7.837-9.057-1.765-2.033-1.818-3-.13-5.075,2.22-2.735,4.476-5.437,6.717-8.154a11.679,11.679,0,0,0,2.812-7.763c-.049-10.512-.021-21.024-.021-31.536,0-3.408-2.047-5.8-4.976-5.825-3.08-.032-5.251,2.266-5.265,5.769-.032,8.983,0,17.969.007,26.952,0,3.4-.557,4.021-3.873,4.289a11.772,11.772,0,0,0-10.8,11.291c-.123,5.519-.1,11.041-.028,16.559.021,1.526-.373,2.012-1.956,2.005-18.906-.053-37.813-.028-56.722-.046-3.728,0-5.765-2.03-5.875-5.758-.039-1.265-.007-2.534-.007-3.9a37.52,37.52,0,0,1,5.05,1.632c.56.268.708,1.4,1.17,2.421h10.8c13.211,0,26.423-.039,39.634.021,1.751.011,2.354-.483,2.312-2.262-.106-4.324-.035-8.655-.035-13.145-.751-.035-1.438-.092-2.125-.092-10.921-.014-21.842-.042-32.763.007-1.427,0-2.016-.342-1.906-1.854a28.612,28.612,0,0,0-.24-3.757h4.736c10.921.007,21.842,0,32.763.053a2.962,2.962,0,0,0,2.749-1.413,16.925,16.925,0,0,1,9.92-6.865c1.251-.317,1.558-.849,1.554-2.037q-.064-12.242-.018-24.488a10.773,10.773,0,0,1,13.663-10.611,10.185,10.185,0,0,1,7.785,9.589c.19,11.619.084,23.248-.053,34.87a14.775,14.775,0,0,1-3.707,9.148c-1.628,2.005-3.189,4.074-4.909,5.994-.888.99-.909,1.617-.018,2.625,3.9,4.387,7.711,8.852,11.548,13.293C563.01,489.237,563.31,489.663,563.747,490.224Z" transform="translate(36.253 830.841)" fill="#007adb"/>
      <path id="Path_4695" data-name="Path 4695" d="M541.238,259.249a7.285,7.285,0,0,0-1.114-3.6c-1.054-1.7-2.876-2.023-4.793-2.019-21.2.014-42.394.1-63.587-.053-5.392-.035-7.171,2.558-7.108,7.249.145,10.741.042,21.489.039,32.238v5.762c2.005.356,3.8.677,5.836,1.04V275.8c.62-.028,1.029-.063,1.434-.063,20.552,0,41.1.025,61.649-.035,1.744,0,2.143.536,2.125,2.192-.085,8.63-.053,17.261-.06,25.894V309.9c1.692-1.272,3.179-2.284,4.528-3.453a3,3,0,0,0,1.057-1.921Q541.335,281.886,541.238,259.249Zm-5.526,1.977c-.113,2.854-.032,5.716-.032,8.659H470.529V259.32c.744-.039,1.424-.1,2.107-.1q30.469-.005,60.941-.028C535.152,259.19,535.78,259.563,535.713,261.226Z" transform="translate(36.325 934.056)" fill="#007adb"/>
      <path id="Path_4696" data-name="Path 4696" d="M457.649,441.216c-.835-.765-1.635-1.572-2.523-2.428.409-.275.592-.412.786-.529,6.544-3.9,7.305-11.164,1.723-16.344-.835-.772-1.635-1.582-2.537-2.456.522-.314.818-.493,1.117-.67a9.64,9.64,0,0,0,1.931-15.685c-2.576-2.484-5.205-4.927-7.922-7.256a9.143,9.143,0,0,0-9.222-1.9,9.642,9.642,0,0,0-3.831,16.2c1.011,1.018,2.04,2.023,3.2,3.172-4.014,1.995-6.163,5.029-6.153,9.423.014,4.479,3.136,6.992,6.319,9.733-.479.292-.719.451-.969.6-6.248,3.588-7.263,10.716-2.16,15.84,2.315,2.326,4.817,4.472,7.245,6.689,4.356,3.982,10.392,3.862,14.149-.271S462.057,445.24,457.649,441.216ZM440.2,401.525c.726-1.618,2.072-2.3,4.285-2.453a12.193,12.193,0,0,1,2.453,1.4c2.474,2.157,4.87,4.4,7.249,6.664,1.864,1.776,2.009,4.063.472,5.79a4.062,4.062,0,0,1-5.966.2c-2.53-2.269-5.018-4.588-7.481-6.932A3.989,3.989,0,0,1,440.2,401.525Zm.014,19.308c.673-1.526,1.864-2.372,4.144-2.435a7.2,7.2,0,0,1,2.157,1.015c2.618,2.262,5.159,4.62,7.665,7.006,1.9,1.808,2.033,4.07.479,5.79-1.646,1.815-3.908,1.938-5.917.173q-3.9-3.431-7.651-7.023A3.765,3.765,0,0,1,440.212,420.833Zm15.044,29.732a4.613,4.613,0,0,1-3.827,2.562,16.871,16.871,0,0,1-2.95-1.677c-2.477-2.15-4.853-4.419-7.249-6.657a4.157,4.157,0,0,1-.529-5.582,3.925,3.925,0,0,1,5.645-.662c2.844,2.439,5.582,5.008,8.278,7.615A3.634,3.634,0,0,1,455.256,450.565Z" transform="translate(56.066 843.488)" fill="#007adb"/>
      <path id="Path_4697" data-name="Path 4697" d="M542.014,647.941c-1.427,1.269-2.731,2.421-4.194,3.718-1.684-1.906-3.344-3.69-4.891-5.571a2.416,2.416,0,0,0-2.689-1.018c-3.9.786-7.834,1.462-11.767,2.09-7.485,1.195-13.779-.951-18.723-6.8-1.357-1.607-2.756-3.179-4.451-5.128,2.622,0,4.86-.049,7.094.046.412.018.87.553,1.184.948,4.123,5.17,9.4,6.544,15.721,5.117,4.169-.941,8.4-1.61,12.63-2.234a3.749,3.749,0,0,1,2.861.747C537.281,642.4,539.562,645.154,542.014,647.941Z" transform="translate(16.466 686.91)" fill="#007adb"/>
      <path id="Path_4698" data-name="Path 4698" d="M524.084,378.134c-.067-3.165-.018-6.333-.032-9.5-.014-4.056-.021-4.067-4.007-4.077-3.683-.014-7.365,0-11.185,0v15.16c4.62,0,9.12-.042,13.62.025C523.728,379.759,524.112,379.357,524.084,378.134Zm-3.232-2.407c-.011.317-.743.863-1.159.877-2.224.088-4.458.1-6.681-.014A1.6,1.6,0,0,1,511.9,375.5c-.1-2.506-.053-5.018-.053-7.749H520.9C520.9,370.48,520.947,373.106,520.852,375.728Z" transform="translate(7.685 862.192)" fill="#007adb"/>
      <path id="Path_4699" data-name="Path 4699" d="M595.68,451.25v15.012h14.935V451.25Zm11.929,11.967h-8.923c0-2.745-.035-5.416.046-8.08.01-.314.631-.86.983-.874,2.284-.081,4.574-.088,6.861,0a1.458,1.458,0,0,1,.987,1.018C607.647,457.857,607.609,460.434,607.609,463.217Z" transform="translate(-48.54 806.044)" fill="#007adb"/>
      <path id="Path_4700" data-name="Path 4700" d="M610.377,365.329c-.007-.317-.973-.863-1.5-.874-3.989-.074-7.978.007-11.964-.067-1.378-.025-1.667.536-1.639,1.78.078,3.108.032,6.216.035,9.328,0,1.321,0,2.643,0,4.042h15.132C610.444,374.686,610.476,370.006,610.377,365.329Zm-3.14,11.2c-2.678,0-5.3.035-7.908-.046-.314-.007-.86-.62-.87-.966-.074-2.565-.042-5.131-.042-7.88h8.821Z" transform="translate(-48.278 862.296)" fill="#007adb"/>
      <path id="Path_4701" data-name="Path 4701" d="M534.594,464.627c.021,1.145-.384,1.593-1.515,1.558-1.582-.049-3.165,0-4.747-.018-2.315-.021-2.315-.028-2.477-3.069,1.381,0,2.759-.039,4.134.014,1.026.039,1.5-.3,1.473-1.4q-.079-3.076.018-6.156c.035-1.255-.521-1.628-1.7-1.575-1.512.07-3.034.018-4.69.018.571-3.084.571-3.077,3.295-3.069,1.977.007,3.954,0,6.188,0v4.726C534.573,458.646,534.531,461.638,534.594,464.627Z" transform="translate(-2.826 806.253)" fill="#007adb"/>
      <path id="Path_4702" data-name="Path 4702" d="M569.534,571.7a4.8,4.8,0,1,1-4.877-4.722A4.843,4.843,0,0,1,569.534,571.7Z" transform="translate(-25.392 731.098)" fill="#007adb"/>
      <path id="Path_4703" data-name="Path 4703" d="M610.429,414.057V417.1c-2.95,0-5.86-.014-8.775,0-3.658.021-3.122-.441-3.157,3.179-.018,1.455,0,2.911,0,4.483h-3.08c0-3.337-.021-6.608.039-9.874a1.186,1.186,0,0,1,.842-.8C600.971,414.042,605.647,414.057,610.429,414.057Z" transform="translate(-48.365 830.132)" fill="#007adb"/>
      <path id="Path_4704" data-name="Path 4704" d="M569.4,395.1c0,1.374-.525,1.692-1.78,1.66-2.921-.07-5.85-.021-8.93-.021V382.26h2.992v11.407c2.093,0,4.01.021,5.927-.011C568.642,393.643,569.4,393.681,569.4,395.1Z" transform="translate(-24.585 850.722)" fill="#007adb"/>
      <path id="Path_4705" data-name="Path 4705" d="M563.68,465.489v2.883H558.5V454.23h3V465.2C562.345,465.309,562.958,465.394,563.68,465.489Z" transform="translate(-24.462 804.115)" fill="#007adb"/>
      <path id="Path_4706" data-name="Path 4706" d="M583.183,378.164c.039,1.2-.61,1.307-1.54,1.293-.9-.011-1.617-.035-1.6-1.255q.053-6.227.011-12.454c-.011-1.092.592-1.247,1.455-1.216.821.028,1.7-.106,1.674,1.173-.032,2.107-.007,4.211-.007,6.319h-.007C583.165,374.069,583.12,376.12,583.183,378.164Z" transform="translate(-38.411 862.205)" fill="#007adb"/>
      <path id="Path_4707" data-name="Path 4707" d="M529.256,418.786c-1.329-.19-2.816.87-3.263-1.219-.049-.236-.758-.44-1.17-.469a13.7,13.7,0,0,0-2.992,0c-2.382.363-3.926-.585-4.891-3.08,3.887,0,7.626-.025,11.365.042.324,0,.874.589.909.941C529.327,416.21,529.256,417.433,529.256,418.786Z" transform="translate(2.452 830.156)" fill="#007adb"/>
      <path id="Path_4708" data-name="Path 4708" d="M574.574,443.737c-.014.307-.874.8-1.339.8a4.614,4.614,0,0,1-1.66-.722c-.028-.014-.018-.113-.021-.169-.127-1.374.24-3.27-.511-3.979-.779-.733-2.643-.317-4.183-.416V436.4h7.777C574.637,438.867,574.687,441.305,574.574,443.737Z" transform="translate(-29.876 815.661)" fill="#007adb"/>
      <path id="Path_4709" data-name="Path 4709" d="M622.317,431.611v3.009H613.74V429.6c3.073-.469,2.7-.659,3.179,2.016Z" transform="translate(-60.236 820.25)" fill="#007adb"/>
      <rect id="Rectangle_1598" data-name="Rectangle 1598" width="2.837" height="9.215" transform="translate(541.844 1263.278)" fill="#007adb"/>
      <path id="Path_4710" data-name="Path 4710" d="M527.929,468.6c-.007.458-.056.916-.1,1.551-.638.046-1.093.1-1.547.1-3.485.042-3.58-.092-3.369-3.587.056-.937.352-1.307,1.325-1.385C527.964,464.979,527.982,464.965,527.929,468.6Z" transform="translate(-1.376 797.038)" fill="#007adb"/>
      <path id="Path_4711" data-name="Path 4711" d="M562.763,366.008c-.01,1.269-.472,1.653-1.649,1.593-1.272-.063-2.548-.014-3.771-.014-.592-2.953-.5-3.076,2.146-3.1.529-.007,1.057.032,1.582-.011C562.206,364.38,562.77,364.683,562.763,366.008Z" transform="translate(-23.52 862.249)" fill="#007adb"/>
      <path id="Path_4712" data-name="Path 4712" d="M548.439,436.65V439.4H543.28c-.056-.832-.116-1.674-.19-2.749Z" transform="translate(-14.483 815.5)" fill="#007adb"/>
      <path id="Path_4713" data-name="Path 4713" d="M529.754,436.3v2.869H527.6c-.046-.98-.088-1.875-.134-2.869Z" transform="translate(-4.367 815.726)" fill="#007adb"/>
      <path id="Path_4722" data-name="Path 4722" d="M522.6,379.18h5.327c-.205,1.665.052,3.537-.75,4.627-.489.663-3.305.668-3.841-.009C522.533,382.78,522.811,380.906,522.6,379.18Z" transform="translate(-1.215 852.717)" fill="#007adb"/>
      <path id="Path_4723" data-name="Path 4723" d="M614.74,469.983h-5.357c.167-1.629-.164-3.567.653-4.595.559-.7,3.345-.719,4,0C614.861,466.295,614.539,468.253,614.74,469.983Z" transform="translate(-57.414 797.235)" fill="#007adb"/>
      <path id="Path_4724" data-name="Path 4724" d="M614.407,383.712a8.251,8.251,0,0,1-.849.148c-4.354.237-4.8-.315-3.858-4.947.938,0,1.918-.01,2.9,0,.572.008,1.143.053,1.81.086Z" transform="translate(-57.353 852.893)" fill="#007adb"/>
    </g>
  </g>
</svg>
