<svg id="favicon" xmlns="http://www.w3.org/2000/svg" width="41.946" height="49.968" viewBox="0 0 41.946 49.968">
  <g id="Group_26" data-name="Group 26" transform="translate(0 12.024)">
    <path id="Path_27" data-name="Path 27" d="M18.141,67.577V59.256A9.255,9.255,0,0,0,17.3,55.3a5.517,5.517,0,0,0-5.147-3.518A6.1,6.1,0,0,0,6.19,57.875V78.206a3.239,3.239,0,0,1-3.02,3.232A3.09,3.09,0,0,1,.01,78.349V62.015c0-3.83-.263-7.393,1.892-10.774A12.139,12.139,0,0,1,12.166,45.6a11.47,11.47,0,0,1,8.222,3.371A14.316,14.316,0,0,1,24.308,58c.092,1.505.023,3.03.023,4.538v5.039a3.094,3.094,0,1,1-6.189,0" transform="translate(0 -45.6)" fill="#0079fb"/>
  </g>
  <g id="Group_27" data-name="Group 27" transform="translate(17.435 26.257)">
    <path id="Path_28" data-name="Path 28" d="M76.683,123.291a12.5,12.5,0,0,1-9.751-4.655,3.611,3.611,0,0,1-.764-2.853,3.538,3.538,0,0,1,1.593-2.415l.311-.2a3.585,3.585,0,0,1,4.719.833,5,5,0,0,0,3.634,1.853,5.128,5.128,0,0,0,5.383-5.12v-7.441a3.722,3.722,0,0,1,3.886-3.71,3.858,3.858,0,0,1,3.551,3.907v8.745h-.094a12.592,12.592,0,0,1-12.468,11.054m-6.743-9.264a2.077,2.077,0,0,0-1.115.325l-.312.2a2.11,2.11,0,0,0-.962,1.458,2.211,2.211,0,0,0,.469,1.746,11.151,11.151,0,0,0,19.794-6.265l.029-.43v-7.567a2.445,2.445,0,0,0-2.21-2.507,2.328,2.328,0,0,0-1.709.644,2.289,2.289,0,0,0-.714,1.667v7.441a6.486,6.486,0,0,1-11.5,4.159,2.309,2.309,0,0,0-1.771-.868" transform="translate(-66.121 -99.58)" fill="#0079fb"/>
  </g>
  <g id="Group_28" data-name="Group 28" transform="translate(7.297)">
    <path id="Path_29" data-name="Path 29" d="M33.044,10.745a5.372,5.372,0,1,0-5.372-5.372,5.372,5.372,0,0,0,5.372,5.372" transform="translate(-27.672)" fill="#0079fb"/>
  </g>
  <g id="Group_29" data-name="Group 29" transform="translate(31.201 14.232)">
    <path id="Path_30" data-name="Path 30" d="M123.7,64.722a5.372,5.372,0,1,1,5.372-5.372,5.379,5.379,0,0,1-5.372,5.372m0-9.429a4.056,4.056,0,1,0,4.057,4.057,4.061,4.061,0,0,0-4.057-4.057" transform="translate(-118.332 -53.977)" fill="#0079fb"/>
  </g>
</svg>
