<svg xmlns="http://www.w3.org/2000/svg" width="84.745" height="156.469" viewBox="0 0 84.745 156.469">
  <g id="Group_3508" data-name="Group 3508" transform="translate(-932.196 -195.054)">
    <path id="Path_4725" data-name="Path 4725" d="M932.207,273.355q0-8.213,0-16.426,0-13.456-.008-26.912c0-3.911-.008-7.822.008-11.733.011-2.639.059-5.278.087-7.917a11.907,11.907,0,0,1,.535-2.923,15.756,15.756,0,0,1,1.228-3.091,16.843,16.843,0,0,1,3.257-4.4,16.556,16.556,0,0,1,5.12-3.5,20.891,20.891,0,0,1,2.307-.807c.718-.211,1.454-.365,2.189-.509a5.732,5.732,0,0,1,1.094-.08q26.314,0,52.629,0a14.7,14.7,0,0,1,5.911,1.327,17.541,17.541,0,0,1,6.934,5.495,16.175,16.175,0,0,1,2.575,4.843,17.2,17.2,0,0,1,.853,5.442q-.006,27.389.013,54.779.005,30.689,0,61.379c0,2.1-.05,4.205,0,6.306a15.225,15.225,0,0,1-.371,3.553,15.937,15.937,0,0,1-2.509,5.749,18.183,18.183,0,0,1-5.05,4.937,17.406,17.406,0,0,1-4.454,2.048,16.363,16.363,0,0,1-4.845.6q-25.215-.012-50.429,0a15.214,15.214,0,0,1-8.093-2.012,17.566,17.566,0,0,1-7.723-8.553,21.32,21.32,0,0,1-.9-2.818,13.767,13.767,0,0,1-.293-3.631q-.052-12.575-.065-25.15-.011-14.373.01-28.745,0-3.63,0-7.26Zm6.579,51.845a6.414,6.414,0,0,0,.932.141q7.916.016,15.831.012,11.031,0,22.061-.007,15.831,0,31.663.005c.957,0,.958-.006.958-.992q0-17.049,0-34.1,0-20.825,0-41.65,0-13.272,0-26.545c0-.881-.03-.908-.9-.919-.122,0-.244,0-.366,0q-3.848.005-7.7.009-6.852,0-13.705-.011-11.36,0-22.72.013-12.533,0-25.066,0a2.614,2.614,0,0,0-.581.045.457.457,0,0,0-.411.515c.012.145,0,.293,0,.44q0,6.709,0,13.419,0,18.882-.005,37.764,0,24.235,0,48.47Zm-.014,6.763c.03,2.227-.16,4.368.525,6.5a8.919,8.919,0,0,0,4.836,5.555,11.451,11.451,0,0,0,4.978.965c3.224.023,6.448.005,9.672.006q12.566,0,25.133,0c5.4,0,10.8,0,16.193-.024a13.014,13.014,0,0,0,2.84-.246,9.706,9.706,0,0,0,3.855-1.8,8.744,8.744,0,0,0,3.32-5.682,36.073,36.073,0,0,0,.2-4.533,3.519,3.519,0,0,0-.137-.745Zm.013-117.407h71.462a5.442,5.442,0,0,0,.089-.668c.007-.806.029-1.614-.014-2.419a11.79,11.79,0,0,0-1.006-4.655,8.851,8.851,0,0,0-5.36-4.664,13.1,13.1,0,0,0-4.179-.569q-10.625,0-21.249,0-14.141,0-28.282,0c-.479,0-.958.148-1.438.161a12.2,12.2,0,0,0-3.254.3,9.736,9.736,0,0,0-3.435,1.769,9.384,9.384,0,0,0-3.31,6.641C938.674,211.789,938.786,213.141,938.786,214.557Z" fill="#007adb"/>
    <path id="Path_4726" data-name="Path 4726" d="M1002.388,485.194h32.328c.024-.342.063-.649.063-.957,0-2.859-.019-5.72.011-8.579a3.34,3.34,0,0,1,1.743-3.07,3.278,3.278,0,0,1,4.71,1.979,7.113,7.113,0,0,1,.193,1.657q0,5.976,0,11.952a3.613,3.613,0,0,1-.736,2.31,3.071,3.071,0,0,1-2.578,1.238c-2.394-.026-4.788-.006-7.182-.006h-24.7c-2.394,0-4.788-.021-7.182.006a3.052,3.052,0,0,1-2.969-1.814,4.322,4.322,0,0,1-.415-1.982q.02-5.021.032-10.043c0-.684-.044-1.369-.026-2.052a3.989,3.989,0,0,1,.574-2.084,3.177,3.177,0,0,1,3-1.571,3.27,3.27,0,0,1,2.839,2.151,5.02,5.02,0,0,1,.251,1.716q0,4.143,0,8.285C1002.344,484.6,1002.37,484.858,1002.388,485.194Z" transform="translate(-44.082 -192.441)" fill="#007adb"/>
    <path id="Path_4727" data-name="Path 4727" d="M1030.663,374.495c.011-.237.031-.475.031-.712q0-10.78,0-21.56c0-.464.019-.929.017-1.393a3.241,3.241,0,0,1,2.837-2.845,3.289,3.289,0,0,1,3.5,2.268,3.906,3.906,0,0,1,.135,1.3c.009,3.1,0,6.209,0,9.313q0,6.49,0,12.98c0,.211.026.422.051.8.38-.347.665-.589.929-.852,2.14-2.135,4.269-4.279,6.416-6.407a3.133,3.133,0,0,1,2.419-1.01,3.3,3.3,0,0,1,3.221,3.632,3.687,3.687,0,0,1-1.2,2.258q-4.346,4.333-8.683,8.675-2,2-3.962,4.037a3.481,3.481,0,0,1-3.613.855,3.272,3.272,0,0,1-1.347-.911q-5.613-5.607-11.189-11.252c-.529-.533-1.073-1.052-1.59-1.6a3.294,3.294,0,1,1,4.8-4.5c2.112,2.1,4.209,4.215,6.317,6.319.237.236.5.445.751.667Z" transform="translate(-59.294 -106.191)" fill="#007adb"/>
  </g>
</svg>
