<svg xmlns="http://www.w3.org/2000/svg" width="14.44" height="16.343" viewBox="0 0 14.44 16.343">
  <g id="Group_938" data-name="Group 938" transform="translate(-316.099 -4536)">
    <g id="Group_937" data-name="Group 937" transform="translate(316.099 4536)">
      <path id="Path_801" data-name="Path 801" d="M317.851,4536a5.21,5.21,0,0,1,1.622.749q3.58,2.087,7.161,4.171c.94.548,1.887,1.085,2.815,1.653a2.919,2.919,0,0,1,.731.648,1.486,1.486,0,0,1-.09,2.031,2.955,2.955,0,0,1-.648.528q-5.243,3.063-10.5,6.109a3.846,3.846,0,0,1-1.1.452h-.479a.394.394,0,0,0-.07-.03,1.337,1.337,0,0,1-.9-.657,2.165,2.165,0,0,1-.305-1.123q0-6.371.016-12.741a2.15,2.15,0,0,1,.05-.474,1.566,1.566,0,0,1,.97-1.232c.088-.033.18-.057.269-.085Zm6.481,8.174c-.041-.053-.073-.095-.106-.135q-2.775-3.409-5.545-6.822a1.4,1.4,0,0,0-.766-.5.767.767,0,0,0-1.009.529,2.114,2.114,0,0,0-.107.656q-.009,6.231,0,12.463a.975.975,0,0,0,.006.207,4.911,4.911,0,0,0,.166.66.6.6,0,0,0,.451.395,1.123,1.123,0,0,0,1.13-.354c1.061-1.276,2.1-2.569,3.147-3.856Zm2.7-2.226a.228.228,0,0,0-.044.032c-.575.7-1.149,1.409-1.727,2.11-.069.083-.025.129.023.188q.44.535.879,1.073l.871,1.063c.06-.033.111-.06.16-.088.625-.363,1.25-.723,1.873-1.09a2.636,2.636,0,0,0,.415-.293.909.909,0,0,0,.039-1.464,3.056,3.056,0,0,0-.555-.393C328.329,4542.7,327.681,4542.326,327.037,4541.948Zm-2.259,2.768-4.586,5.627.021.027,6.233-3.612Zm1.651-3.133-6.195-3.617-.025.036,4.569,5.623Z" transform="translate(-316.099 -4536)" fill="#fff"/>
    </g>
  </g>
</svg>
