<svg xmlns="http://www.w3.org/2000/svg" width="15.416" height="15.499" viewBox="0 0 15.416 15.499">
  <g id="Group_3504" data-name="Group 3504" transform="translate(-1268 -444)">
    <g id="Group_73" data-name="Group 73" transform="translate(1268 444)">
      <path id="Path_296" data-name="Path 296" d="M548.9,3424.674c1.033,0,2.067-.032,3.1.006,2.883.108,4.482,1.631,4.6,4.5.084,2.115.078,4.24,0,6.356-.1,2.754-1.509,4.287-4.272,4.458a57.608,57.608,0,0,1-7.065-.03,3.821,3.821,0,0,1-3.914-3.83,64.378,64.378,0,0,1,.029-7.772,3.762,3.762,0,0,1,3.562-3.566c1.31-.158,2.64-.144,3.962-.207Zm.1,1.426c-1.113,0-2.229-.041-3.34.009a2.783,2.783,0,0,0-2.984,2.936c-.064,2.2-.069,4.4,0,6.6a2.746,2.746,0,0,0,2.948,2.965c2.2.077,4.4.082,6.6,0a2.776,2.776,0,0,0,2.955-3.046c.055-2.12.051-4.242,0-6.362a2.849,2.849,0,0,0-3.081-3.1C551.067,3426.066,550.031,3426.1,549,3426.1Z" transform="translate(-541.238 -3424.591)" fill="#fff"/>
      <path id="Path_297" data-name="Path 297" d="M568.619,3456.419a3.962,3.962,0,1,1,3.929-4.024A3.932,3.932,0,0,1,568.619,3456.419Zm2.534-3.927a2.564,2.564,0,1,0-2.549,2.531A2.585,2.585,0,0,0,571.152,3452.492Z" transform="translate(-560.907 -3444.691)" fill="#fff"/>
      <path id="Path_298" data-name="Path 298" d="M611.656,3442.929c-.333.255-.635.65-1.006.733-.586.131-.951-.275-.96-.871a.829.829,0,0,1,.886-.908C611.148,3441.864,611.431,3442.2,611.656,3442.929Z" transform="translate(-598.795 -3439.131)" fill="#fff"/>
    </g>
  </g>
</svg>
