<svg xmlns="http://www.w3.org/2000/svg" width="25.156" height="21.593" viewBox="0 0 25.156 21.593">
  <path id="next-arrow" d="M1026.233,365.514c.007-.157.02-.314.02-.471q0-7.13,0-14.259c0-.307.013-.614.011-.921a2.144,2.144,0,0,1,1.877-1.882,2.176,2.176,0,0,1,2.313,1.5,2.585,2.585,0,0,1,.089.861c.006,2.053,0,4.106,0,6.16q0,4.293,0,8.585c0,.14.017.279.034.532.251-.23.44-.389.614-.563,1.415-1.412,2.824-2.83,4.244-4.237a2.072,2.072,0,0,1,1.6-.668,2.18,2.18,0,0,1,2.13,2.4,2.439,2.439,0,0,1-.792,1.493q-2.875,2.866-5.743,5.738-1.321,1.324-2.62,2.67a2.3,2.3,0,0,1-2.389.565,2.164,2.164,0,0,1-.891-.6q-3.712-3.709-7.4-7.442c-.35-.352-.71-.7-1.052-1.055a2.179,2.179,0,1,1,3.176-2.974c1.4,1.389,2.784,2.788,4.178,4.179.156.156.331.294.5.441Z" transform="translate(-347.971 1039.174) rotate(-90)" fill="#d1deeb"/>
</svg>
