<svg xmlns="http://www.w3.org/2000/svg" width="93.405" height="149.305" viewBox="0 0 93.405 149.305">
  <g id="Group_3505" data-name="Group 3505" transform="translate(-248.616 -1183.695)">
    <path id="Path_4688" data-name="Path 4688" d="M644.145,739.7c-4.26.208-6.926-4.065-6.875-6.72A6.968,6.968,0,0,1,644,726.35a6.761,6.761,0,0,1,6.936,6.6C650.973,735.965,648.309,739.882,644.145,739.7Zm.016-4.628a2.036,2.036,0,0,0,2.179-1.955,2.8,2.8,0,0,0-2.2-2.3,3.084,3.084,0,0,0-2.29,2.355A2.343,2.343,0,0,0,644.161,735.07Z" transform="translate(-348.986 584.217)" fill="#007adb"/>
    <path id="Path_4690" data-name="Path 4690" d="M622.379-44.451h17.865c.068,1.534.131,2.946.2,4.421H622.379Z" transform="translate(-336.365 1237.498)" fill="#007adb"/>
    <path id="Path_4691" data-name="Path 4691" d="M470.856-43.753a2.176,2.176,0,0,1,2.13,2.145,2.249,2.249,0,0,1-2.158,2.224A2.378,2.378,0,0,1,468.72-41.7,1.986,1.986,0,0,1,470.856-43.753Z" transform="translate(-206.133 1236.906)" fill="#007adb"/>
    <path id="Path_4687" data-name="Path 4687" d="M387.672-105.788h71.862a18.386,18.386,0,0,1,1.647.934,15.534,15.534,0,0,1,2.194,1.73,7.723,7.723,0,0,1,2.232,5.629c.019,7.478.221,14.957.1,22.431a16.1,16.1,0,0,0,2.155,9.1c1,1.627,1.763,3.4,2.633,5.112v.152c-.057.931-.16,1.862-.163,2.793a13.107,13.107,0,0,1-4.146,10.183,1.794,1.794,0,0,0-.406,1.21q-.029,27.642-.023,55.284c-.008,7.488-.07,14.975-.148,22.463-.019,1.85-.193,3.7-.3,5.547-.167,2.83-2.05,4.459-4.168,5.909a4.931,4.931,0,0,1-2.921.822q-34.479-.046-68.959.007a6.092,6.092,0,0,1-3.53-1.1c-2.4-1.594-3.9-3.662-3.88-6.708.016-2.764-.244-5.528-.248-8.293q-.056-36.4-.033-72.8a4.078,4.078,0,0,0-1.259-3.294,11.67,11.67,0,0,1-1.475-1.93,9.093,9.093,0,0,1-1.731-5.64c.052-1.521-.033-3.046-.006-4.568a3.134,3.134,0,0,1,.309-1.3c1.218-2.451,2.494-4.874,3.7-7.331a4.149,4.149,0,0,0,.417-1.728q.128-13.286.193-26.573c.018-3.325,1.742-5.554,4.477-7.164C386.687-105.2,387.178-105.493,387.672-105.788ZM456.215,15.605H391.047V-45.165l-4.871-.215c-.014.3-.033.493-.033.691q.026,36.784.064,73.569c0,2.308.056,4.624.255,6.922.207,2.4,1.013,2.627,2.681,2.824.428.05.856.123,1.285.136,3.195.093,6.39.241,9.586.246q24.131.037,48.261,0c3.221,0,6.442-.133,9.661-.247a2.475,2.475,0,0,0,2.71-2.395c.136-2.4.386-4.809.392-7.214q.1-36.784.122-73.569c0-.243,0-.486,0-.748h-4.945ZM414.682-49.735c-2.383,2.733-5.106,4.518-8.843,4.484a10.98,10.98,0,0,1-8.739-4.47,2.6,2.6,0,0,0-1.219,2.272c-.017,1.065-.125,2.13-.127,3.195q-.046,27.262-.071,54.524c0,.243.03.486.046.737H451.61c0-.269,0-.492,0-.715q-.014-25.511-.039-51.022c0-2.409-.157-4.817-.243-7.226a2.263,2.263,0,0,0-1.157-1.76c-2.3,2.734-4.945,4.449-8.712,4.393a11.224,11.224,0,0,1-8.864-4.409c-2.462,2.641-5.254,4.518-8.945,4.528S417.16-47.066,414.682-49.735Zm-28.39-30.538.147.042c.412-.777.8-1.565,1.239-2.33.588-1.034,1.186-2.065,1.822-3.07a2.708,2.708,0,0,1,2.362-1.294c2.307-.058,4.613-.2,6.92-.2q21.92-.051,43.841-.043c4.235.005,8.469.17,12.7.245a3.048,3.048,0,0,1,2.745,1.618c.823,1.426,1.591,2.883,2.381,4.328.125.228.244.458.365.688a1.053,1.053,0,0,0,.181-.623c.018-4.975.047-9.95.034-14.924a14.876,14.876,0,0,0-.292-2.718,2.566,2.566,0,0,0-2.708-2.361c-3.5-.117-7-.231-10.5-.236q-23.747-.037-47.495,0c-3.651.006-7.3.13-10.953.245a2.632,2.632,0,0,0-2.606,2.233,6.363,6.363,0,0,0-.184,1.354Q386.281-88.8,386.292-80.273ZM381.556-60.09c.26.022.409.047.558.047,5.2,0,10.4-.011,15.6.018.633,0,.694-.342.761-.78q1.441-9.4,2.877-18.792c.147-.964.237-1.936.36-2.958-.372-.036-.619-.076-.868-.081-2.409-.045-4.818-.064-7.226-.138a1.015,1.015,0,0,0-1.085.686c-2.135,4.315-4.3,8.615-6.452,12.922C384.588-66.178,383.1-63.187,381.556-60.09Zm75.072.049V-60.1c2.282,0,4.565.023,6.847-.007,1.786-.023,1.911-.205,1.125-1.821q-4.952-10.182-9.972-20.331a1.063,1.063,0,0,0-.8-.48c-2.51,0-5.019.071-7.529.1-.556.006-.755.163-.666.763.441,2.984.813,5.978,1.266,8.959.62,4.084,1.3,8.158,1.93,12.24.08.521.3.65.795.646C451.962-60.053,454.295-60.041,456.628-60.041ZM406.515-82.635l-3.545,22.594h.763c1.649,0,3.3.007,4.947,0,1.75-.01,3.5-.017,5.25-.061,1.111-.028,1.234-.148,1.323-1.205.241-2.856.479-5.713.682-8.572.279-3.948.518-7.9.793-11.848.039-.566-.126-.9-.717-.9C412.9-82.639,409.781-82.635,406.515-82.635ZM444.3-60.082c-.639-4.1-1.257-8.1-1.888-12.1-.521-3.3-1.064-6.6-1.578-9.907-.075-.484-.243-.687-.771-.677-1.926.038-3.853.01-5.78.043-1.055.018-2.11.108-3.213.168,0,.548-.015.977,0,1.4.163,4.054.305,8.11.507,12.162.136,2.734.375,5.463.53,8.2.037.648.315.773.9.769,3.524-.024,7.048-.011,10.572-.013C443.8-60.043,444.025-60.067,444.3-60.082ZM426.268-82.647c-1.437,0-2.724,0-4.01,0-.555,0-.774.274-.82.846-.544,6.8-1.115,13.593-1.671,20.39-.1,1.232-.083,1.264,1.176,1.3,1.926.049,3.853.052,5.779.07.268,0,.535-.024.774-.036Q426.876-71.481,426.268-82.647Zm26.585,27.48a4.894,4.894,0,0,0,.466,1.24c.851,1.093,1.72,2.179,2.67,3.185a2.693,2.693,0,0,0,1.4.7c3.523.654,5.932-.561,7.633-3.581.748-1.329.532-1.726-.979-1.736-3.171-.021-6.342,0-9.513.02C454.028-55.338,453.529-55.24,452.853-55.167Zm-40.662-.254c-2.184,0-4.183-.01-6.181,0-1.774.011-3.549.016-5.321.082-1.107.041-1.336.409-.776,1.373a13.088,13.088,0,0,0,1.816,2.414,5.316,5.316,0,0,0,6.078,1.315C410.135-51.094,411.388-52.99,412.19-55.421Zm23.025.142a6.678,6.678,0,0,0,7.194,5.373c2.394-.317,5.353-3.333,5.131-5.373Zm-11.535,0v.024c-1.9,0-3.8,0-5.7,0-.495,0-.657.207-.479.728a6.549,6.549,0,0,0,6.244,4.513,5.144,5.144,0,0,0,1.138-.037,5.422,5.422,0,0,0,1.7-.571,8.76,8.76,0,0,0,3.1-3.68c.355-.731.269-.94-.521-.964C427.33-55.317,425.5-55.28,423.68-55.28Zm-35.557-.007v.033c-1.9,0-3.791-.005-5.687,0-.515,0-.633.238-.458.741a6.5,6.5,0,0,0,6.233,4.5,4.9,4.9,0,0,0,1.135-.037,5.647,5.647,0,0,0,1.757-.609,8.761,8.761,0,0,0,3.033-3.624c.378-.782.313-.958-.55-.986C391.766-55.328,389.944-55.286,388.123-55.286Z" transform="translate(-128.475 1289.483)" fill="#007adb"/>
    <path id="Path_4689" data-name="Path 4689" d="M529.391,328.549v-4.444c.061-.046.1-.1.14-.1,2.586.03,5.172.05,7.757.105a2.041,2.041,0,0,1,2.033,1.633c.258.871.532,1.736.833,2.715,2.014,0,4.039-.007,6.065,0q13.815.053,27.63.112a2.354,2.354,0,0,1,2.076,2.773c-.829,2.74-1.655,5.483-2.549,8.2-1.147,3.489-2.391,6.947-3.529,10.439a2.469,2.469,0,0,1-2.662,1.861c-4.237.024-8.473.08-12.71.139-2.587.036-5.174.1-7.76.155-.273.006-.546.052-.957.093.309,1.322.641,2.562.875,3.82.129.692.434.855,1.114.852,5.988-.03,11.976-.006,17.964-.033a2.432,2.432,0,0,1,1.788.63c.467.428,1,.782,1.476,1.2a6.862,6.862,0,1,1-11.175,7.03,13.106,13.106,0,0,1-.255-2.409c-.037-.576-.007-1.156-.007-1.781h-5.112c.051.439.089.857.15,1.271a7.081,7.081,0,0,1-6.391,7.882,7.008,7.008,0,0,1-7.359-6.657A6.633,6.633,0,0,1,541.4,358.3a1.5,1.5,0,0,0,.6-1.792q-3.23-13.455-6.375-26.931c-.154-.656-.41-.889-1.1-.885C532.833,328.7,531.141,328.6,529.391,328.549Zm11.838,4.791a2.685,2.685,0,0,0,.047.388c1.077,4.3,2.165,8.6,3.225,12.9.121.492.38.553.806.553q10.043-.014,20.086.008c.549,0,.726-.211.877-.686.939-2.944,1.91-5.877,2.867-8.815.454-1.394.9-2.791,1.4-4.349Zm4.46,32.749a2.651,2.651,0,0,0,2.415-2.307,2.765,2.765,0,0,0-2.44-2.318,2.336,2.336,0,0,0-2.256,2.38A2.252,2.252,0,0,0,545.689,366.09Zm18.775-4.591a2.66,2.66,0,0,0-2.512,2.295,2.947,2.947,0,0,0,2.463,2.314,3,3,0,0,0,2.433-2.27A2.671,2.671,0,0,0,564.464,361.5Z" transform="translate(-257.554 925.22)" fill="#007adb"/>
  </g>
</svg>
