<svg xmlns="http://www.w3.org/2000/svg" width="25.156" height="21.593" viewBox="0 0 25.156 21.593">
  <path id="prev-arrow" d="M8.652,7.613c.007.157.02.314.02.471q0,7.13,0,14.259c0,.307.013.614.011.921a2.144,2.144,0,0,0,1.877,1.882,2.176,2.176,0,0,0,2.313-1.5,2.585,2.585,0,0,0,.089-.861c.006-2.053,0-4.106,0-6.159q0-4.292,0-8.585c0-.14.017-.279.034-.532.251.23.44.389.614.563,1.415,1.412,2.824,2.83,4.244,4.237a2.072,2.072,0,0,0,1.6.668,2.18,2.18,0,0,0,2.13-2.4,2.439,2.439,0,0,0-.792-1.493q-2.875-2.866-5.743-5.738Q13.727,2.02,12.427.675A2.3,2.3,0,0,0,10.038.11a2.164,2.164,0,0,0-.891.6q-3.712,3.709-7.4,7.442c-.35.352-.71.7-1.052,1.055a2.158,2.158,0,0,0,.73,3.611,2.153,2.153,0,0,0,2.446-.637C5.268,10.794,6.655,9.4,8.049,8c.156-.156.331-.294.5-.441Z" transform="translate(0 21.593) rotate(-90)" fill="#d1deeb"/>
</svg>
