<svg xmlns="http://www.w3.org/2000/svg" width="48.626" height="20" viewBox="0 0 48.626 20">
  <g id="Group_3503" data-name="Group 3503" transform="translate(-175.82 -5031)">
    <g id="Group_3476" data-name="Group 3476" transform="translate(175.82 5031)">
      <path id="Path_4732" data-name="Path 4732" d="M2106.226,364.478c3.145,0,6.293.071,9.435-.02a5.511,5.511,0,0,1,5.623,5.425q.137,4.558,0,9.123a5.565,5.565,0,0,1-5.67,5.45c-6.351-.086-12.7-.032-19.057-.022a5.36,5.36,0,0,1-5.5-4.98c-.151-3.323-.148-6.662,0-9.985a5.341,5.341,0,0,1,5.49-4.991C2099.77,364.484,2103,364.478,2106.226,364.478Zm-.1,18.068c3.144,0,6.29-.067,9.431.021a3.813,3.813,0,0,0,4.021-3.986q0-4.125,0-8.251a3.841,3.841,0,0,0-4.013-4q-9.43.1-18.863,0a3.769,3.769,0,0,0-3.965,3.774q-.033,4.342,0,8.685a3.746,3.746,0,0,0,3.959,3.776C2099.836,382.485,2102.981,382.546,2106.125,382.546Z" transform="translate(-2072.725 -364.456)" fill="#fff"/>
      <path id="Path_4733" data-name="Path 4733" d="M1951.865,401.534h6.2c.165,0,.331-.006.5,0a.911.911,0,0,1,.961.845.9.9,0,0,1-.952.858c-1.177.02-2.355.009-3.532.009h-9.544a4.248,4.248,0,0,1-.5-.012.812.812,0,0,1-.79-.871.788.788,0,0,1,.781-.809,9.856,9.856,0,0,1,.99-.028q2.944,0,5.887,0Z" transform="translate(-1944.206 -396.924)" fill="#fff"/>
      <path id="Path_4734" data-name="Path 4734" d="M1976.76,438.163q-2.54,0-5.08,0c-.616,0-.923-.273-.938-.808-.015-.572.294-.86.945-.861,3.324,0,6.649-.011,9.973,0,.289,0,.7.052.836.239a1.148,1.148,0,0,1,.152.947.973.973,0,0,1-.748.463c-1.713.041-3.427.021-5.141.021Z" transform="translate(-1967.447 -427.545)" fill="#fff"/>
      <path id="Path_4735" data-name="Path 4735" d="M1996.357,472.688c-1.28,0-2.56.006-3.84,0-.643,0-.873-.24-.878-.849s.248-.878.858-.88q3.841-.012,7.681,0a.779.779,0,0,1,.885.867c0,.617-.258.86-.928.86h-3.779Z" transform="translate(-1985.75 -457.729)" fill="#fff"/>
      <path id="Path_4736" data-name="Path 4736" d="M2139.956,405.961c1.565.991,3.045,1.929,4.526,2.865.717.453,1.44.9,2.151,1.357.489.316.638.776.364,1.148a.764.764,0,0,1-1.15.136c-2.24-1.411-4.484-2.815-6.713-4.243-.34-.218-.571-.3-.91.008-.4.36-.876.625-1.287.97a1.018,1.018,0,0,1-1.491-.026c-.426-.359-.912-.648-1.341-1a.508.508,0,0,0-.708-.029q-3.186,2.042-6.389,4.057c-.209.132-.426.341-.645.349a1.345,1.345,0,0,1-.913-.228.633.633,0,0,1,.131-.98c.374-.291.786-.534,1.188-.788,1.868-1.18,3.737-2.356,5.686-3.584-.762-.571-1.462-1.1-2.168-1.623-1.463-1.083-2.931-2.16-4.392-3.246-.517-.384-.643-.823-.371-1.2s.736-.388,1.257,0q4.493,3.317,8.975,6.65a.615.615,0,0,0,.9.006q4.446-3.328,8.93-6.6a1.675,1.675,0,0,1,.955-.277.671.671,0,0,1,.45.492,1.244,1.244,0,0,1-.36.838c-1.169.921-2.379,1.791-3.577,2.677C2142.053,404.414,2141.056,405.149,2139.956,405.961Z" transform="translate(-2102.792 -395.245)" fill="#fff"/>
    </g>
  </g>
</svg>
