<svg xmlns="http://www.w3.org/2000/svg" width="14.65" height="12.245" viewBox="0 0 14.65 12.245">
  <path id="Path_294" data-name="Path 294" d="M547.73,3785.415c-1.684-.542-2.235-1-2.6-2.123l1.084-.133a3.339,3.339,0,0,1-2.272-2.976l1.258.286a3.342,3.342,0,0,1-.833-4.094,8.916,8.916,0,0,0,6.249,3.175,10.98,10.98,0,0,1,.122-1.356,2.986,2.986,0,0,1,4.477-1.96,1.9,1.9,0,0,0,2.164.073.644.644,0,0,1,.521-.037l-1.018,1.415,1.244-.316c.009.079.036.14.017.165a6.325,6.325,0,0,0-1.5,3.432,8.7,8.7,0,0,1-12.517,6.085c-.156-.08-.3-.186-.627-.393A6.48,6.48,0,0,0,547.73,3785.415Z" transform="translate(-543.5 -3775.773)" fill="#fff"/>
</svg>
