<svg id="Group_3432" data-name="Group 3432" xmlns="http://www.w3.org/2000/svg" width="209.671" height="63.763" viewBox="0 0 209.671 63.763">
  <g id="Group_3404" data-name="Group 3404" transform="translate(0 0)">
    <g id="Group_3403" data-name="Group 3403">
      <g id="Group_3402" data-name="Group 3402">
        <path id="Path_4801" data-name="Path 4801" d="M2375.045,1060.553a6.719,6.719,0,0,1,6.712,6.712v47.554a6.72,6.72,0,0,1-6.712,6.712H2181.583a6.72,6.72,0,0,1-6.712-6.712v-47.554a6.719,6.719,0,0,1,6.712-6.712h193.462m0-1.393H2181.583a8.1,8.1,0,0,0-8.1,8.1v47.554a8.1,8.1,0,0,0,8.1,8.1h193.462a8.1,8.1,0,0,0,8.1-8.1v-47.554a8.1,8.1,0,0,0-8.1-8.1Z" transform="translate(-2173.478 -1059.16)"/>
      </g>
    </g>
  </g>
  <g id="Group_3407" data-name="Group 3407" transform="translate(20.38 11.264)">
    <g id="Group_3405" data-name="Group 3405" transform="translate(0 9.54)">
      <path id="Path_4802" data-name="Path 4802" d="M2321.51,1213.788c-3.4,5.9-1.239,14.859,2.522,20.29,1.877,2.716,3.778,5.153,6.382,5.153.049,0,.1,0,.148,0a7.87,7.87,0,0,0,2.962-.789,8.112,8.112,0,0,1,3.509-.831,7.632,7.632,0,0,1,3.339.8,7.071,7.071,0,0,0,3.2.767c2.932-.055,4.733-2.684,6.322-5.005a22.168,22.168,0,0,0,2.77-5.673l.011-.036a.33.33,0,0,0-.175-.4l-.024-.01a8.406,8.406,0,0,1-5.094-7.7,8.652,8.652,0,0,1,4.089-7.234l.032-.021a.329.329,0,0,0,.094-.463,9.514,9.514,0,0,0-7.485-4.064,6.507,6.507,0,0,0-.652-.032,13.041,13.041,0,0,0-4.7,1.173,7.543,7.543,0,0,1-2.25.672,7.364,7.364,0,0,1-2.328-.68,11.283,11.283,0,0,0-4.1-1.042h-.1A10.059,10.059,0,0,0,2321.51,1213.788Z" transform="translate(-2319.813 -1208.538)"/>
    </g>
    <g id="Group_3406" data-name="Group 3406" transform="translate(16.005)">
      <path id="Path_4803" data-name="Path 4803" d="M2443.033,1140.038a9.186,9.186,0,0,0-6.064,3.111,8.607,8.607,0,0,0-2.179,6.381.331.331,0,0,0,.3.286c.14.01.283.016.426.016a7.771,7.771,0,0,0,5.724-2.936,9.072,9.072,0,0,0,2.133-6.565A.332.332,0,0,0,2443.033,1140.038Z" transform="translate(-2434.737 -1140.038)"/>
    </g>
  </g>
  <g id="Group_3410" data-name="Group 3410" transform="translate(65.692 11.935)">
    <g id="Group_3408" data-name="Group 3408" transform="translate(2.913)">
      <path id="Path_4804" data-name="Path 4804" d="M2666.092,1149.15h3.943a5.769,5.769,0,0,1,2.754.641,4.683,4.683,0,0,1,1.872,1.772,5.269,5.269,0,0,1,0,5.139,4.683,4.683,0,0,1-1.872,1.772,5.77,5.77,0,0,1-2.754.641h-3.943Zm3.886,9.309a5.2,5.2,0,0,0,2.434-.548,3.92,3.92,0,0,0,1.623-1.53,4.725,4.725,0,0,0,0-4.5,3.921,3.921,0,0,0-1.623-1.53,5.2,5.2,0,0,0-2.434-.548h-3.16v8.655Z" transform="translate(-2666.092 -1148.552)"/>
      <path id="Path_4805" data-name="Path 4805" d="M2744.87,1173.994a3.483,3.483,0,0,1-1.331-1.345,4.143,4.143,0,0,1,0-3.886,3.487,3.487,0,0,1,1.331-1.345,3.972,3.972,0,0,1,3.8,0,3.49,3.49,0,0,1,1.331,1.345,4.143,4.143,0,0,1,0,3.886,3.487,3.487,0,0,1-1.331,1.345,3.972,3.972,0,0,1-3.8,0Zm3.43-.555a2.865,2.865,0,0,0,1.068-1.11,3.562,3.562,0,0,0,0-3.245,2.868,2.868,0,0,0-1.068-1.11,3.137,3.137,0,0,0-3.06,0,2.86,2.86,0,0,0-1.068,1.11,3.56,3.56,0,0,0,0,3.245,2.858,2.858,0,0,0,1.068,1.11,3.137,3.137,0,0,0,3.06,0Z" transform="translate(-2732.336 -1163.859)"/>
      <path id="Path_4806" data-name="Path 4806" d="M2812.892,1167.343l-2.818,7.43h-.669l-2.505-6.448-2.52,6.448h-.655l-2.818-7.43h.683l2.477,6.633,2.534-6.633h.612l2.519,6.619,2.505-6.619Z" transform="translate(-2782.131 -1164.211)"/>
      <path id="Path_4807" data-name="Path 4807" d="M2904.659,1167.745a3.159,3.159,0,0,1,.812,2.334v4.342h-.712v-4.285a2.637,2.637,0,0,0-.634-1.907,2.351,2.351,0,0,0-1.772-.655,2.732,2.732,0,0,0-2.064.783,2.907,2.907,0,0,0-.754,2.107v3.957h-.712v-7.43h.683v1.608a2.828,2.828,0,0,1,1.146-1.224,3.529,3.529,0,0,1,1.8-.441A2.981,2.981,0,0,1,2904.659,1167.745Z" transform="translate(-2866.411 -1163.859)"/>
      <path id="Path_4808" data-name="Path 4808" d="M2967.609,1144.856h.712v10.562h-.712Z" transform="translate(-2925.617 -1144.856)"/>
      <path id="Path_4809" data-name="Path 4809" d="M2990.274,1173.994a3.483,3.483,0,0,1-1.331-1.345,4.143,4.143,0,0,1,0-3.886,3.486,3.486,0,0,1,1.331-1.345,3.973,3.973,0,0,1,3.8,0,3.488,3.488,0,0,1,1.331,1.345,4.141,4.141,0,0,1,0,3.886,3.484,3.484,0,0,1-1.331,1.345,3.973,3.973,0,0,1-3.8,0Zm3.431-.555a2.863,2.863,0,0,0,1.068-1.11,3.558,3.558,0,0,0,0-3.245,2.865,2.865,0,0,0-1.068-1.11,3.137,3.137,0,0,0-3.061,0,2.864,2.864,0,0,0-1.068,1.11,3.56,3.56,0,0,0,0,3.245,2.861,2.861,0,0,0,1.068,1.11,3.137,3.137,0,0,0,3.061,0Z" transform="translate(-2943.563 -1163.859)"/>
      <path id="Path_4810" data-name="Path 4810" d="M3057.942,1167.639a2.728,2.728,0,0,1,.74,2.071v4.712H3058V1173.1a2.473,2.473,0,0,1-1.039,1.018,3.446,3.446,0,0,1-1.637.363,3.018,3.018,0,0,1-1.958-.583,2.019,2.019,0,0,1-.057-3.039,3.18,3.18,0,0,1,2.114-.577h2.548v-.6a2.093,2.093,0,0,0-.562-1.58,2.282,2.282,0,0,0-1.644-.541,3.963,3.963,0,0,0-1.416.256,3.548,3.548,0,0,0-1.146.683l-.356-.513a3.954,3.954,0,0,1,1.338-.776,4.864,4.864,0,0,1,1.637-.278A2.958,2.958,0,0,1,3057.942,1167.639Zm-.947,5.829a2.6,2.6,0,0,0,.975-1.239v-1.4h-2.534a2.522,2.522,0,0,0-1.587.4,1.335,1.335,0,0,0-.491,1.1,1.372,1.372,0,0,0,.541,1.146,2.433,2.433,0,0,0,1.523.42A2.794,2.794,0,0,0,3057,1173.468Z" transform="translate(-2998.812 -1163.859)"/>
      <path id="Path_4811" data-name="Path 4811" d="M3118.729,1144.856v10.562h-.7v-1.751a3.191,3.191,0,0,1-1.238,1.338,3.494,3.494,0,0,1-1.808.47,3.694,3.694,0,0,1-1.879-.484,3.461,3.461,0,0,1-1.317-1.338,3.931,3.931,0,0,1-.477-1.95,3.973,3.973,0,0,1,.477-1.957,3.4,3.4,0,0,1,1.317-1.338,3.737,3.737,0,0,1,1.879-.477,3.428,3.428,0,0,1,1.786.47,3.347,3.347,0,0,1,1.246,1.309v-4.854Zm-2.171,9.58a2.862,2.862,0,0,0,1.067-1.11,3.558,3.558,0,0,0,0-3.245,2.864,2.864,0,0,0-1.067-1.11,3.136,3.136,0,0,0-3.061,0,2.861,2.861,0,0,0-1.068,1.11,3.56,3.56,0,0,0,0,3.245,2.859,2.859,0,0,0,1.068,1.11,3.137,3.137,0,0,0,3.061,0Z" transform="translate(-3049.308 -1144.856)"/>
      <path id="Path_4812" data-name="Path 4812" d="M3208.386,1173.994a3.485,3.485,0,0,1-1.331-1.345,4.143,4.143,0,0,1,0-3.886,3.489,3.489,0,0,1,1.331-1.345,3.973,3.973,0,0,1,3.8,0,3.49,3.49,0,0,1,1.331,1.345,4.141,4.141,0,0,1,0,3.886,3.486,3.486,0,0,1-1.331,1.345,3.973,3.973,0,0,1-3.8,0Zm3.431-.555a2.862,2.862,0,0,0,1.067-1.11,3.558,3.558,0,0,0,0-3.245,2.865,2.865,0,0,0-1.067-1.11,3.137,3.137,0,0,0-3.061,0,2.862,2.862,0,0,0-1.068,1.11,3.558,3.558,0,0,0,0,3.245,2.86,2.86,0,0,0,1.068,1.11,3.137,3.137,0,0,0,3.061,0Z" transform="translate(-3131.3 -1163.859)"/>
      <path id="Path_4813" data-name="Path 4813" d="M3281.6,1167.745a3.16,3.16,0,0,1,.811,2.334v4.342h-.712v-4.285a2.638,2.638,0,0,0-.633-1.907,2.351,2.351,0,0,0-1.772-.655,2.732,2.732,0,0,0-2.064.783,2.907,2.907,0,0,0-.754,2.107v3.957h-.712v-7.43h.683v1.608a2.826,2.826,0,0,1,1.146-1.224,3.53,3.53,0,0,1,1.8-.441A2.982,2.982,0,0,1,3281.6,1167.745Z" transform="translate(-3190.859 -1163.859)"/>
      <path id="Path_4814" data-name="Path 4814" d="M3366.941,1164.274a1.79,1.79,0,0,1-.676.392,2.666,2.666,0,0,1-.847.135,2.006,2.006,0,0,1-1.495-.534,2.027,2.027,0,0,1-.527-1.488v-4.854h-1.366v-.612h1.366v-1.623h.712v1.623h2.363v.612h-2.363v4.783a1.568,1.568,0,0,0,.349,1.1,1.336,1.336,0,0,0,1.032.377,1.651,1.651,0,0,0,1.153-.413Z" transform="translate(-3265.108 -1154.182)"/>
      <path id="Path_4815" data-name="Path 4815" d="M3417.335,1148.742a3.161,3.161,0,0,1,.811,2.334v4.342h-.712v-4.285a2.637,2.637,0,0,0-.634-1.907,2.351,2.351,0,0,0-1.772-.655,2.731,2.731,0,0,0-2.064.783,2.906,2.906,0,0,0-.754,2.107v3.957h-.712v-10.562h.712v4.683a2.724,2.724,0,0,1,1.139-1.189,3.6,3.6,0,0,1,1.779-.42A2.982,2.982,0,0,1,3417.335,1148.742Z" transform="translate(-3307.688 -1144.856)"/>
      <path id="Path_4816" data-name="Path 4816" d="M3481.649,1170.877h-6.391a3.1,3.1,0,0,0,.441,1.544,2.824,2.824,0,0,0,1.117,1.046,3.36,3.36,0,0,0,1.587.37,3.4,3.4,0,0,0,1.345-.263,2.622,2.622,0,0,0,1.032-.776l.413.47a3.17,3.17,0,0,1-1.217.9,4.239,4.239,0,0,1-3.566-.171,3.509,3.509,0,0,1-1.359-1.338,3.843,3.843,0,0,1-.491-1.95,4.039,4.039,0,0,1,.463-1.943,3.41,3.41,0,0,1,1.274-1.345,3.682,3.682,0,0,1,3.637-.007,3.391,3.391,0,0,1,1.267,1.331,4,4,0,0,1,.463,1.936Zm-4.939-2.968a2.66,2.66,0,0,0-1,.982,3.2,3.2,0,0,0-.434,1.431h5.694a2.979,2.979,0,0,0-.427-1.423,2.763,2.763,0,0,0-2.42-1.338A2.847,2.847,0,0,0,3476.71,1167.909Z" transform="translate(-3361.966 -1163.859)"/>
    </g>
    <g id="Group_3409" data-name="Group 3409" transform="translate(0 19.26)">
      <path id="Path_4817" data-name="Path 4817" d="M2658.624,1297.981h-8.514l-1.678,3.941h-3.26l7.663-17.028h3.114l7.687,17.028h-3.308Zm-1.046-2.481-3.211-7.443-3.187,7.443Z" transform="translate(-2645.172 -1284.651)"/>
      <path id="Path_4818" data-name="Path 4818" d="M2801.787,1313.667a5.969,5.969,0,0,1,2.347,2.335,7.557,7.557,0,0,1,0,6.969,5.943,5.943,0,0,1-2.347,2.348,6.894,6.894,0,0,1-3.394.827,5.245,5.245,0,0,1-4.16-1.751v6.3h-3.041v-17.709h2.895v1.7a4.7,4.7,0,0,1,1.861-1.386,6.288,6.288,0,0,1,2.445-.462A6.9,6.9,0,0,1,2801.787,1313.667Zm-.973,8.757a4.543,4.543,0,0,0,0-5.887,3.677,3.677,0,0,0-2.761-1.119,3.913,3.913,0,0,0-1.97.5,3.6,3.6,0,0,0-1.386,1.423,4.739,4.739,0,0,0,0,4.281,3.6,3.6,0,0,0,1.386,1.423,3.907,3.907,0,0,0,1.97.5A3.676,3.676,0,0,0,2800.814,1322.424Z" transform="translate(-2770.857 -1308.705)"/>
      <path id="Path_4819" data-name="Path 4819" d="M2921.607,1313.667a5.967,5.967,0,0,1,2.347,2.335,7.555,7.555,0,0,1,0,6.969,5.941,5.941,0,0,1-2.347,2.348,6.893,6.893,0,0,1-3.393.827,5.244,5.244,0,0,1-4.16-1.751v6.3h-3.041v-17.709h2.895v1.7a4.7,4.7,0,0,1,1.861-1.386,6.288,6.288,0,0,1,2.445-.462A6.9,6.9,0,0,1,2921.607,1313.667Zm-.973,8.757a4.543,4.543,0,0,0,0-5.887,3.677,3.677,0,0,0-2.761-1.119,3.915,3.915,0,0,0-1.97.5,3.605,3.605,0,0,0-1.386,1.423,4.741,4.741,0,0,0,0,4.281,3.6,3.6,0,0,0,1.386,1.423,3.908,3.908,0,0,0,1.97.5A3.675,3.675,0,0,0,2920.634,1322.424Z" transform="translate(-2873.99 -1308.705)"/>
      <path id="Path_4820" data-name="Path 4820" d="M3073.736,1300.1a7.938,7.938,0,0,1-2.907-1.484l1.095-2.457a8.612,8.612,0,0,0,2.566,1.35,9.322,9.322,0,0,0,3.053.523,5.275,5.275,0,0,0,2.834-.608,1.843,1.843,0,0,0,.937-1.606,1.555,1.555,0,0,0-.523-1.2,3.679,3.679,0,0,0-1.326-.742q-.8-.267-2.189-.608a25.463,25.463,0,0,1-3.15-.924,5.181,5.181,0,0,1-2.068-1.447,3.9,3.9,0,0,1-.864-2.664,4.545,4.545,0,0,1,.766-2.567,5.186,5.186,0,0,1,2.311-1.836,9.365,9.365,0,0,1,3.783-.681,12.228,12.228,0,0,1,3.065.389,8.478,8.478,0,0,1,2.6,1.119l-1,2.457a9.857,9.857,0,0,0-2.335-1,8.741,8.741,0,0,0-2.36-.341,4.931,4.931,0,0,0-2.785.632,1.952,1.952,0,0,0-.912,1.678,1.517,1.517,0,0,0,.523,1.192,3.773,3.773,0,0,0,1.326.73q.8.268,2.189.608a23.054,23.054,0,0,1,3.114.912,5.339,5.339,0,0,1,2.08,1.447,3.817,3.817,0,0,1,.864,2.627,4.486,4.486,0,0,1-.766,2.554,5.212,5.212,0,0,1-2.323,1.824,9.456,9.456,0,0,1-3.795.681A12.993,12.993,0,0,1,3073.736,1300.1Z" transform="translate(-3011.549 -1283.147)"/>
      <path id="Path_4821" data-name="Path 4821" d="M3186.038,1308.432a3.581,3.581,0,0,1-1.3.657,5.864,5.864,0,0,1-1.618.219,4.589,4.589,0,0,1-3.308-1.119,4.306,4.306,0,0,1-1.168-3.26v-6.252H3176.5v-2.433h2.141v-2.968h3.041v2.968h3.479v2.433h-3.479v6.179a2.055,2.055,0,0,0,.462,1.448,1.735,1.735,0,0,0,1.338.5,2.671,2.671,0,0,0,1.7-.535Z" transform="translate(-3102.505 -1291.866)"/>
      <path id="Path_4822" data-name="Path 4822" d="M3255.492,1325.295a6.2,6.2,0,0,1-2.469-2.372,7.094,7.094,0,0,1,0-6.872,6.233,6.233,0,0,1,2.469-2.36,7.883,7.883,0,0,1,7.127,0,6.24,6.24,0,0,1,2.469,2.36,7.094,7.094,0,0,1,0,6.872,6.209,6.209,0,0,1-2.469,2.372,7.883,7.883,0,0,1-7.127,0Zm6.324-2.87a4.5,4.5,0,0,0,0-5.887,3.716,3.716,0,0,0-2.773-1.119,3.675,3.675,0,0,0-2.761,1.119,4.543,4.543,0,0,0,0,5.887,3.674,3.674,0,0,0,2.761,1.119A3.715,3.715,0,0,0,3261.816,1322.424Z" transform="translate(-3167.604 -1308.705)"/>
      <path id="Path_4823" data-name="Path 4823" d="M3379.995,1312.84v2.895a3.857,3.857,0,0,0-.706-.073,3.673,3.673,0,0,0-2.773,1.034,4.122,4.122,0,0,0-1,2.98v6.3h-3.041v-12.99h2.895v1.9Q3376.686,1312.84,3379.995,1312.84Z" transform="translate(-3271.188 -1308.705)"/>
      <path id="Path_4824" data-name="Path 4824" d="M3449.641,1320.454h-10.192a3.532,3.532,0,0,0,1.4,2.275,4.586,4.586,0,0,0,2.81.839,4.734,4.734,0,0,0,3.527-1.411l1.63,1.873a5.488,5.488,0,0,1-2.214,1.581,8.772,8.772,0,0,1-6.787-.316,6.126,6.126,0,0,1-2.518-2.372,6.693,6.693,0,0,1-.888-3.442,6.8,6.8,0,0,1,.864-3.418,6.128,6.128,0,0,1,2.4-2.372,6.992,6.992,0,0,1,3.454-.851,6.814,6.814,0,0,1,3.393.839,5.946,5.946,0,0,1,2.335,2.359,7.158,7.158,0,0,1,.839,3.515Q3449.69,1319.87,3449.641,1320.454Zm-8.988-4.318a3.633,3.633,0,0,0-1.229,2.3h7.371a3.586,3.586,0,0,0-1.192-2.287,3.625,3.625,0,0,0-2.481-.876A3.668,3.668,0,0,0,3440.653,1316.136Z" transform="translate(-3326.214 -1308.705)"/>
    </g>
  </g>
</svg>
