<svg xmlns="http://www.w3.org/2000/svg" xmlns:xlink="http://www.w3.org/1999/xlink" width="1045" height="180" viewBox="0 0 1045 180">
  <defs>
    <clipPath id="clip-path">
      <rect id="Rectangle_1608" data-name="Rectangle 1608" width="1045" height="180" rx="34" transform="translate(118 4783)" fill="#ff5490"/>
    </clipPath>
    <linearGradient id="linear-gradient" x1="0.5" x2="0.5" y2="1" gradientUnits="objectBoundingBox">
      <stop offset="0" stop-color="#0079fb"/>
      <stop offset="0.661" stop-color="#0079fb"/>
      <stop offset="1" stop-color="#0079fb"/>
    </linearGradient>
  </defs>
  <g id="Group_3519" data-name="Group 3519" transform="translate(-118 -4784)">
    <g id="Group_3518" data-name="Group 3518">
      <g id="Group_3502" data-name="Group 3502" transform="translate(0 1)">
        <path id="Path_4685" data-name="Path 4685" d="M34,0h977a34,34,0,0,1,34,34V146a34,34,0,0,1-34,34H34A34,34,0,0,1,0,146V34A34,34,0,0,1,34,0Z" transform="translate(118 4783)" fill="#007adb"/>
      </g>
      <g id="Mask_Group_73" data-name="Mask Group 73" transform="translate(0 1)" clip-path="url(#clip-path)">
        <path id="Path_4772" data-name="Path 4772" d="M316.707,332.787s93.734-219.892,434.4-150.768c290.574,58.959,163.221,353.211,12.548,282.822-124.306-58.073-235.044,10.772-270,36.646a135.829,135.829,0,0,1-52.3,23.991c-32.342,6.9-78.029,5.5-114.838-38.79C326.526,486.687,277.715,425.866,316.707,332.787Z" transform="translate(-223.068 4744.304) rotate(-20)" fill="url(#linear-gradient)"/>
        <g id="Group_3517" data-name="Group 3517" transform="translate(1776 4002)" opacity="0.53">
          <g id="Group_3503" data-name="Group 3503" transform="translate(-808 667)">
            <circle id="Ellipse_93" data-name="Ellipse 93" cx="3" cy="3" r="3" transform="translate(0)" fill="#0079fb"/>
            <circle id="Ellipse_94" data-name="Ellipse 94" cx="3" cy="3" r="3" transform="translate(15)" fill="#0079fb"/>
            <ellipse id="Ellipse_95" data-name="Ellipse 95" cx="2.5" cy="3" rx="2.5" ry="3" transform="translate(31)" fill="#0079fb"/>
            <circle id="Ellipse_96" data-name="Ellipse 96" cx="3" cy="3" r="3" transform="translate(46)" fill="#0079fb"/>
            <circle id="Ellipse_97" data-name="Ellipse 97" cx="3" cy="3" r="3" transform="translate(62)" fill="#0079fb"/>
            <ellipse id="Ellipse_98" data-name="Ellipse 98" cx="2.5" cy="3" rx="2.5" ry="3" transform="translate(77)" fill="#0079fb"/>
            <circle id="Ellipse_99" data-name="Ellipse 99" cx="3" cy="3" r="3" transform="translate(92)" fill="#0079fb"/>
            <circle id="Ellipse_100" data-name="Ellipse 100" cx="3" cy="3" r="3" transform="translate(108)" fill="#0079fb"/>
            <ellipse id="Ellipse_101" data-name="Ellipse 101" cx="2.5" cy="3" rx="2.5" ry="3" transform="translate(124)" fill="#0079fb"/>
            <ellipse id="Ellipse_102" data-name="Ellipse 102" cx="2.5" cy="3" rx="2.5" ry="3" transform="translate(139)" fill="#0079fb"/>
            <ellipse id="Ellipse_103" data-name="Ellipse 103" cx="2.5" cy="3" rx="2.5" ry="3" transform="translate(155)" fill="#0079fb"/>
            <circle id="Ellipse_104" data-name="Ellipse 104" cx="3" cy="3" r="3" transform="translate(170)" fill="#0079fb"/>
            <circle id="Ellipse_105" data-name="Ellipse 105" cx="3" cy="3" r="3" transform="translate(185)" fill="#0079fb"/>
            <circle id="Ellipse_106" data-name="Ellipse 106" cx="3" cy="3" r="3" transform="translate(200)" fill="#0079fb"/>
            <circle id="Ellipse_107" data-name="Ellipse 107" cx="3" cy="3" r="3" transform="translate(216)" fill="#0079fb"/>
            <ellipse id="Ellipse_108" data-name="Ellipse 108" cx="2.5" cy="3" rx="2.5" ry="3" transform="translate(232)" fill="#0079fb"/>
            <circle id="Ellipse_109" data-name="Ellipse 109" cx="3" cy="3" r="3" transform="translate(245)" fill="#0079fb"/>
          </g>
          <g id="Group_3504" data-name="Group 3504" transform="translate(-808 682.88)">
            <circle id="Ellipse_110" data-name="Ellipse 110" cx="3" cy="3" r="3" transform="translate(0 0.121)" fill="#0079fb"/>
            <circle id="Ellipse_111" data-name="Ellipse 111" cx="3" cy="3" r="3" transform="translate(15 0.121)" fill="#0079fb"/>
            <ellipse id="Ellipse_112" data-name="Ellipse 112" cx="2.5" cy="3" rx="2.5" ry="3" transform="translate(31 0.121)" fill="#0079fb"/>
            <circle id="Ellipse_113" data-name="Ellipse 113" cx="3" cy="3" r="3" transform="translate(46 0.121)" fill="#0079fb"/>
            <circle id="Ellipse_114" data-name="Ellipse 114" cx="3" cy="3" r="3" transform="translate(62 0.121)" fill="#0079fb"/>
            <ellipse id="Ellipse_115" data-name="Ellipse 115" cx="2.5" cy="3" rx="2.5" ry="3" transform="translate(77 0.121)" fill="#0079fb"/>
            <circle id="Ellipse_116" data-name="Ellipse 116" cx="3" cy="3" r="3" transform="translate(92 0.121)" fill="#0079fb"/>
            <circle id="Ellipse_117" data-name="Ellipse 117" cx="3" cy="3" r="3" transform="translate(108 0.121)" fill="#0079fb"/>
            <ellipse id="Ellipse_118" data-name="Ellipse 118" cx="2.5" cy="3" rx="2.5" ry="3" transform="translate(124 0.121)" fill="#0079fb"/>
            <ellipse id="Ellipse_119" data-name="Ellipse 119" cx="2.5" cy="3" rx="2.5" ry="3" transform="translate(139 0.121)" fill="#0079fb"/>
            <ellipse id="Ellipse_120" data-name="Ellipse 120" cx="2.5" cy="3" rx="2.5" ry="3" transform="translate(155 0.121)" fill="#0079fb"/>
            <circle id="Ellipse_121" data-name="Ellipse 121" cx="3" cy="3" r="3" transform="translate(170 0.121)" fill="#0079fb"/>
            <circle id="Ellipse_122" data-name="Ellipse 122" cx="3" cy="3" r="3" transform="translate(185 0.121)" fill="#0079fb"/>
            <circle id="Ellipse_123" data-name="Ellipse 123" cx="3" cy="3" r="3" transform="translate(200 0.121)" fill="#0079fb"/>
            <circle id="Ellipse_124" data-name="Ellipse 124" cx="3" cy="3" r="3" transform="translate(216 0.121)" fill="#0079fb"/>
            <ellipse id="Ellipse_125" data-name="Ellipse 125" cx="2.5" cy="3" rx="2.5" ry="3" transform="translate(232 0.121)" fill="#0079fb"/>
            <circle id="Ellipse_126" data-name="Ellipse 126" cx="3" cy="3" r="3" transform="translate(245 0.121)" fill="#0079fb"/>
          </g>
          <g id="Group_3505" data-name="Group 3505" transform="translate(-808 698.759)">
            <ellipse id="Ellipse_127" data-name="Ellipse 127" cx="3" cy="2.5" rx="3" ry="2.5" transform="translate(0 0.241)" fill="#0079fb"/>
            <ellipse id="Ellipse_128" data-name="Ellipse 128" cx="3" cy="2.5" rx="3" ry="2.5" transform="translate(15 0.241)" fill="#0079fb"/>
            <circle id="Ellipse_129" data-name="Ellipse 129" cx="2.5" cy="2.5" r="2.5" transform="translate(31 0.241)" fill="#0079fb"/>
            <ellipse id="Ellipse_130" data-name="Ellipse 130" cx="3" cy="2.5" rx="3" ry="2.5" transform="translate(46 0.241)" fill="#0079fb"/>
            <ellipse id="Ellipse_131" data-name="Ellipse 131" cx="3" cy="2.5" rx="3" ry="2.5" transform="translate(62 0.241)" fill="#0079fb"/>
            <circle id="Ellipse_132" data-name="Ellipse 132" cx="2.5" cy="2.5" r="2.5" transform="translate(77 0.241)" fill="#0079fb"/>
            <ellipse id="Ellipse_133" data-name="Ellipse 133" cx="3" cy="2.5" rx="3" ry="2.5" transform="translate(92 0.241)" fill="#0079fb"/>
            <ellipse id="Ellipse_134" data-name="Ellipse 134" cx="3" cy="2.5" rx="3" ry="2.5" transform="translate(108 0.241)" fill="#0079fb"/>
            <circle id="Ellipse_135" data-name="Ellipse 135" cx="2.5" cy="2.5" r="2.5" transform="translate(124 0.241)" fill="#0079fb"/>
            <circle id="Ellipse_136" data-name="Ellipse 136" cx="2.5" cy="2.5" r="2.5" transform="translate(139 0.241)" fill="#0079fb"/>
            <circle id="Ellipse_137" data-name="Ellipse 137" cx="2.5" cy="2.5" r="2.5" transform="translate(155 0.241)" fill="#0079fb"/>
            <ellipse id="Ellipse_138" data-name="Ellipse 138" cx="3" cy="2.5" rx="3" ry="2.5" transform="translate(170 0.241)" fill="#0079fb"/>
            <ellipse id="Ellipse_139" data-name="Ellipse 139" cx="3" cy="2.5" rx="3" ry="2.5" transform="translate(185 0.241)" fill="#0079fb"/>
            <ellipse id="Ellipse_140" data-name="Ellipse 140" cx="3" cy="2.5" rx="3" ry="2.5" transform="translate(200 0.241)" fill="#0079fb"/>
            <ellipse id="Ellipse_141" data-name="Ellipse 141" cx="3" cy="2.5" rx="3" ry="2.5" transform="translate(216 0.241)" fill="#0079fb"/>
            <circle id="Ellipse_142" data-name="Ellipse 142" cx="2.5" cy="2.5" r="2.5" transform="translate(232 0.241)" fill="#0079fb"/>
            <ellipse id="Ellipse_143" data-name="Ellipse 143" cx="3" cy="2.5" rx="3" ry="2.5" transform="translate(245 0.241)" fill="#0079fb"/>
          </g>
          <g id="Group_3506" data-name="Group 3506" transform="translate(-808 714.639)">
            <ellipse id="Ellipse_144" data-name="Ellipse 144" cx="3" cy="2.5" rx="3" ry="2.5" transform="translate(0 0.361)" fill="#0079fb"/>
            <ellipse id="Ellipse_145" data-name="Ellipse 145" cx="3" cy="2.5" rx="3" ry="2.5" transform="translate(15 0.361)" fill="#0079fb"/>
            <circle id="Ellipse_146" data-name="Ellipse 146" cx="2.5" cy="2.5" r="2.5" transform="translate(31 0.361)" fill="#0079fb"/>
            <ellipse id="Ellipse_147" data-name="Ellipse 147" cx="3" cy="2.5" rx="3" ry="2.5" transform="translate(46 0.361)" fill="#0079fb"/>
            <ellipse id="Ellipse_148" data-name="Ellipse 148" cx="3" cy="2.5" rx="3" ry="2.5" transform="translate(62 0.361)" fill="#0079fb"/>
            <circle id="Ellipse_149" data-name="Ellipse 149" cx="2.5" cy="2.5" r="2.5" transform="translate(77 0.361)" fill="#0079fb"/>
            <ellipse id="Ellipse_150" data-name="Ellipse 150" cx="3" cy="2.5" rx="3" ry="2.5" transform="translate(92 0.361)" fill="#0079fb"/>
            <ellipse id="Ellipse_151" data-name="Ellipse 151" cx="3" cy="2.5" rx="3" ry="2.5" transform="translate(108 0.361)" fill="#0079fb"/>
            <circle id="Ellipse_152" data-name="Ellipse 152" cx="2.5" cy="2.5" r="2.5" transform="translate(124 0.361)" fill="#0079fb"/>
            <circle id="Ellipse_153" data-name="Ellipse 153" cx="2.5" cy="2.5" r="2.5" transform="translate(139 0.361)" fill="#0079fb"/>
            <circle id="Ellipse_154" data-name="Ellipse 154" cx="2.5" cy="2.5" r="2.5" transform="translate(155 0.361)" fill="#0079fb"/>
            <ellipse id="Ellipse_155" data-name="Ellipse 155" cx="3" cy="2.5" rx="3" ry="2.5" transform="translate(170 0.361)" fill="#0079fb"/>
            <ellipse id="Ellipse_156" data-name="Ellipse 156" cx="3" cy="2.5" rx="3" ry="2.5" transform="translate(185 0.361)" fill="#0079fb"/>
            <ellipse id="Ellipse_157" data-name="Ellipse 157" cx="3" cy="2.5" rx="3" ry="2.5" transform="translate(200 0.361)" fill="#0079fb"/>
            <ellipse id="Ellipse_158" data-name="Ellipse 158" cx="3" cy="2.5" rx="3" ry="2.5" transform="translate(216 0.361)" fill="#0079fb"/>
            <circle id="Ellipse_159" data-name="Ellipse 159" cx="2.5" cy="2.5" r="2.5" transform="translate(232 0.361)" fill="#0079fb"/>
            <ellipse id="Ellipse_160" data-name="Ellipse 160" cx="3" cy="2.5" rx="3" ry="2.5" transform="translate(245 0.361)" fill="#0079fb"/>
          </g>
          <g id="Group_3507" data-name="Group 3507" transform="translate(-808 730.518)">
            <ellipse id="Ellipse_161" data-name="Ellipse 161" cx="3" cy="2.5" rx="3" ry="2.5" transform="translate(0 0.481)" fill="#0079fb"/>
            <ellipse id="Ellipse_162" data-name="Ellipse 162" cx="3" cy="2.5" rx="3" ry="2.5" transform="translate(15 0.481)" fill="#0079fb"/>
            <circle id="Ellipse_163" data-name="Ellipse 163" cx="2.5" cy="2.5" r="2.5" transform="translate(31 0.481)" fill="#0079fb"/>
            <ellipse id="Ellipse_164" data-name="Ellipse 164" cx="3" cy="2.5" rx="3" ry="2.5" transform="translate(46 0.481)" fill="#0079fb"/>
            <ellipse id="Ellipse_165" data-name="Ellipse 165" cx="3" cy="2.5" rx="3" ry="2.5" transform="translate(62 0.481)" fill="#0079fb"/>
            <circle id="Ellipse_166" data-name="Ellipse 166" cx="2.5" cy="2.5" r="2.5" transform="translate(77 0.481)" fill="#0079fb"/>
            <ellipse id="Ellipse_167" data-name="Ellipse 167" cx="3" cy="2.5" rx="3" ry="2.5" transform="translate(92 0.481)" fill="#0079fb"/>
            <ellipse id="Ellipse_168" data-name="Ellipse 168" cx="3" cy="2.5" rx="3" ry="2.5" transform="translate(108 0.481)" fill="#0079fb"/>
            <circle id="Ellipse_169" data-name="Ellipse 169" cx="2.5" cy="2.5" r="2.5" transform="translate(124 0.481)" fill="#0079fb"/>
            <circle id="Ellipse_170" data-name="Ellipse 170" cx="2.5" cy="2.5" r="2.5" transform="translate(139 0.481)" fill="#0079fb"/>
            <circle id="Ellipse_171" data-name="Ellipse 171" cx="2.5" cy="2.5" r="2.5" transform="translate(155 0.481)" fill="#0079fb"/>
            <ellipse id="Ellipse_172" data-name="Ellipse 172" cx="3" cy="2.5" rx="3" ry="2.5" transform="translate(170 0.481)" fill="#0079fb"/>
            <ellipse id="Ellipse_173" data-name="Ellipse 173" cx="3" cy="2.5" rx="3" ry="2.5" transform="translate(185 0.481)" fill="#0079fb"/>
            <ellipse id="Ellipse_174" data-name="Ellipse 174" cx="3" cy="2.5" rx="3" ry="2.5" transform="translate(200 0.481)" fill="#0079fb"/>
            <ellipse id="Ellipse_175" data-name="Ellipse 175" cx="3" cy="2.5" rx="3" ry="2.5" transform="translate(216 0.481)" fill="#0079fb"/>
            <circle id="Ellipse_176" data-name="Ellipse 176" cx="2.5" cy="2.5" r="2.5" transform="translate(232 0.481)" fill="#0079fb"/>
            <ellipse id="Ellipse_177" data-name="Ellipse 177" cx="3" cy="2.5" rx="3" ry="2.5" transform="translate(245 0.481)" fill="#0079fb"/>
          </g>
          <g id="Group_3508" data-name="Group 3508" transform="translate(-808 746.398)">
            <circle id="Ellipse_178" data-name="Ellipse 178" cx="3" cy="3" r="3" transform="translate(0 -0.398)" fill="#0079fb"/>
            <circle id="Ellipse_179" data-name="Ellipse 179" cx="3" cy="3" r="3" transform="translate(15 -0.398)" fill="#0079fb"/>
            <ellipse id="Ellipse_180" data-name="Ellipse 180" cx="2.5" cy="3" rx="2.5" ry="3" transform="translate(31 -0.398)" fill="#0079fb"/>
            <circle id="Ellipse_181" data-name="Ellipse 181" cx="3" cy="3" r="3" transform="translate(46 -0.398)" fill="#0079fb"/>
            <circle id="Ellipse_182" data-name="Ellipse 182" cx="3" cy="3" r="3" transform="translate(62 -0.398)" fill="#0079fb"/>
            <ellipse id="Ellipse_183" data-name="Ellipse 183" cx="2.5" cy="3" rx="2.5" ry="3" transform="translate(77 -0.398)" fill="#0079fb"/>
            <circle id="Ellipse_184" data-name="Ellipse 184" cx="3" cy="3" r="3" transform="translate(92 -0.398)" fill="#0079fb"/>
            <circle id="Ellipse_185" data-name="Ellipse 185" cx="3" cy="3" r="3" transform="translate(108 -0.398)" fill="#0079fb"/>
            <ellipse id="Ellipse_186" data-name="Ellipse 186" cx="2.5" cy="3" rx="2.5" ry="3" transform="translate(124 -0.398)" fill="#0079fb"/>
            <ellipse id="Ellipse_187" data-name="Ellipse 187" cx="2.5" cy="3" rx="2.5" ry="3" transform="translate(139 -0.398)" fill="#0079fb"/>
            <ellipse id="Ellipse_188" data-name="Ellipse 188" cx="2.5" cy="3" rx="2.5" ry="3" transform="translate(155 -0.398)" fill="#0079fb"/>
            <circle id="Ellipse_189" data-name="Ellipse 189" cx="3" cy="3" r="3" transform="translate(170 -0.398)" fill="#0079fb"/>
            <circle id="Ellipse_190" data-name="Ellipse 190" cx="3" cy="3" r="3" transform="translate(185 -0.398)" fill="#0079fb"/>
            <circle id="Ellipse_191" data-name="Ellipse 191" cx="3" cy="3" r="3" transform="translate(200 -0.398)" fill="#0079fb"/>
            <circle id="Ellipse_192" data-name="Ellipse 192" cx="3" cy="3" r="3" transform="translate(216 -0.398)" fill="#0079fb"/>
            <ellipse id="Ellipse_193" data-name="Ellipse 193" cx="2.5" cy="3" rx="2.5" ry="3" transform="translate(232 -0.398)" fill="#0079fb"/>
            <circle id="Ellipse_194" data-name="Ellipse 194" cx="3" cy="3" r="3" transform="translate(245 -0.398)" fill="#0079fb"/>
          </g>
          <g id="Group_3509" data-name="Group 3509" transform="translate(-808 762.278)">
            <circle id="Ellipse_195" data-name="Ellipse 195" cx="3" cy="3" r="3" transform="translate(0 -0.277)" fill="#0079fb"/>
            <circle id="Ellipse_196" data-name="Ellipse 196" cx="3" cy="3" r="3" transform="translate(15 -0.277)" fill="#0079fb"/>
            <ellipse id="Ellipse_197" data-name="Ellipse 197" cx="2.5" cy="3" rx="2.5" ry="3" transform="translate(31 -0.277)" fill="#0079fb"/>
            <circle id="Ellipse_198" data-name="Ellipse 198" cx="3" cy="3" r="3" transform="translate(46 -0.277)" fill="#0079fb"/>
            <circle id="Ellipse_199" data-name="Ellipse 199" cx="3" cy="3" r="3" transform="translate(62 -0.277)" fill="#0079fb"/>
            <ellipse id="Ellipse_200" data-name="Ellipse 200" cx="2.5" cy="3" rx="2.5" ry="3" transform="translate(77 -0.277)" fill="#0079fb"/>
            <circle id="Ellipse_201" data-name="Ellipse 201" cx="3" cy="3" r="3" transform="translate(92 -0.277)" fill="#0079fb"/>
            <circle id="Ellipse_202" data-name="Ellipse 202" cx="3" cy="3" r="3" transform="translate(108 -0.277)" fill="#0079fb"/>
            <ellipse id="Ellipse_203" data-name="Ellipse 203" cx="2.5" cy="3" rx="2.5" ry="3" transform="translate(124 -0.277)" fill="#0079fb"/>
            <ellipse id="Ellipse_204" data-name="Ellipse 204" cx="2.5" cy="3" rx="2.5" ry="3" transform="translate(139 -0.277)" fill="#0079fb"/>
            <ellipse id="Ellipse_205" data-name="Ellipse 205" cx="2.5" cy="3" rx="2.5" ry="3" transform="translate(155 -0.277)" fill="#0079fb"/>
            <circle id="Ellipse_206" data-name="Ellipse 206" cx="3" cy="3" r="3" transform="translate(170 -0.277)" fill="#0079fb"/>
            <circle id="Ellipse_207" data-name="Ellipse 207" cx="3" cy="3" r="3" transform="translate(185 -0.277)" fill="#0079fb"/>
            <circle id="Ellipse_208" data-name="Ellipse 208" cx="3" cy="3" r="3" transform="translate(200 -0.277)" fill="#0079fb"/>
            <circle id="Ellipse_209" data-name="Ellipse 209" cx="3" cy="3" r="3" transform="translate(216 -0.277)" fill="#0079fb"/>
            <ellipse id="Ellipse_210" data-name="Ellipse 210" cx="2.5" cy="3" rx="2.5" ry="3" transform="translate(232 -0.277)" fill="#0079fb"/>
            <circle id="Ellipse_211" data-name="Ellipse 211" cx="3" cy="3" r="3" transform="translate(245 -0.277)" fill="#0079fb"/>
          </g>
          <g id="Group_3510" data-name="Group 3510" transform="translate(-808 778.157)">
            <circle id="Ellipse_212" data-name="Ellipse 212" cx="3" cy="3" r="3" transform="translate(0 -0.157)" fill="#0079fb"/>
            <circle id="Ellipse_213" data-name="Ellipse 213" cx="3" cy="3" r="3" transform="translate(15 -0.157)" fill="#0079fb"/>
            <ellipse id="Ellipse_214" data-name="Ellipse 214" cx="2.5" cy="3" rx="2.5" ry="3" transform="translate(31 -0.157)" fill="#0079fb"/>
            <circle id="Ellipse_215" data-name="Ellipse 215" cx="3" cy="3" r="3" transform="translate(46 -0.157)" fill="#0079fb"/>
            <circle id="Ellipse_216" data-name="Ellipse 216" cx="3" cy="3" r="3" transform="translate(62 -0.157)" fill="#0079fb"/>
            <ellipse id="Ellipse_217" data-name="Ellipse 217" cx="2.5" cy="3" rx="2.5" ry="3" transform="translate(77 -0.157)" fill="#0079fb"/>
            <circle id="Ellipse_218" data-name="Ellipse 218" cx="3" cy="3" r="3" transform="translate(92 -0.157)" fill="#0079fb"/>
            <circle id="Ellipse_219" data-name="Ellipse 219" cx="3" cy="3" r="3" transform="translate(108 -0.157)" fill="#0079fb"/>
            <ellipse id="Ellipse_220" data-name="Ellipse 220" cx="2.5" cy="3" rx="2.5" ry="3" transform="translate(124 -0.157)" fill="#0079fb"/>
            <ellipse id="Ellipse_221" data-name="Ellipse 221" cx="2.5" cy="3" rx="2.5" ry="3" transform="translate(139 -0.157)" fill="#0079fb"/>
            <ellipse id="Ellipse_222" data-name="Ellipse 222" cx="2.5" cy="3" rx="2.5" ry="3" transform="translate(155 -0.157)" fill="#0079fb"/>
            <circle id="Ellipse_223" data-name="Ellipse 223" cx="3" cy="3" r="3" transform="translate(170 -0.157)" fill="#0079fb"/>
            <circle id="Ellipse_224" data-name="Ellipse 224" cx="3" cy="3" r="3" transform="translate(185 -0.157)" fill="#0079fb"/>
            <circle id="Ellipse_225" data-name="Ellipse 225" cx="3" cy="3" r="3" transform="translate(200 -0.157)" fill="#0079fb"/>
            <circle id="Ellipse_226" data-name="Ellipse 226" cx="3" cy="3" r="3" transform="translate(216 -0.157)" fill="#0079fb"/>
            <ellipse id="Ellipse_227" data-name="Ellipse 227" cx="2.5" cy="3" rx="2.5" ry="3" transform="translate(232 -0.157)" fill="#0079fb"/>
            <circle id="Ellipse_228" data-name="Ellipse 228" cx="3" cy="3" r="3" transform="translate(245 -0.157)" fill="#0079fb"/>
          </g>
          <g id="Group_3511" data-name="Group 3511" transform="translate(-808 794.037)">
            <circle id="Ellipse_229" data-name="Ellipse 229" cx="3" cy="3" r="3" transform="translate(0 -0.037)" fill="#0079fb"/>
            <circle id="Ellipse_230" data-name="Ellipse 230" cx="3" cy="3" r="3" transform="translate(15 -0.037)" fill="#0079fb"/>
            <ellipse id="Ellipse_231" data-name="Ellipse 231" cx="2.5" cy="3" rx="2.5" ry="3" transform="translate(31 -0.037)" fill="#0079fb"/>
            <circle id="Ellipse_232" data-name="Ellipse 232" cx="3" cy="3" r="3" transform="translate(46 -0.037)" fill="#0079fb"/>
            <circle id="Ellipse_233" data-name="Ellipse 233" cx="3" cy="3" r="3" transform="translate(62 -0.037)" fill="#0079fb"/>
            <ellipse id="Ellipse_234" data-name="Ellipse 234" cx="2.5" cy="3" rx="2.5" ry="3" transform="translate(77 -0.037)" fill="#0079fb"/>
            <circle id="Ellipse_235" data-name="Ellipse 235" cx="3" cy="3" r="3" transform="translate(92 -0.037)" fill="#0079fb"/>
            <circle id="Ellipse_236" data-name="Ellipse 236" cx="3" cy="3" r="3" transform="translate(108 -0.037)" fill="#0079fb"/>
            <ellipse id="Ellipse_237" data-name="Ellipse 237" cx="2.5" cy="3" rx="2.5" ry="3" transform="translate(124 -0.037)" fill="#0079fb"/>
            <ellipse id="Ellipse_238" data-name="Ellipse 238" cx="2.5" cy="3" rx="2.5" ry="3" transform="translate(139 -0.037)" fill="#0079fb"/>
            <ellipse id="Ellipse_239" data-name="Ellipse 239" cx="2.5" cy="3" rx="2.5" ry="3" transform="translate(155 -0.037)" fill="#0079fb"/>
            <circle id="Ellipse_240" data-name="Ellipse 240" cx="3" cy="3" r="3" transform="translate(170 -0.037)" fill="#0079fb"/>
            <circle id="Ellipse_241" data-name="Ellipse 241" cx="3" cy="3" r="3" transform="translate(185 -0.037)" fill="#0079fb"/>
            <circle id="Ellipse_242" data-name="Ellipse 242" cx="3" cy="3" r="3" transform="translate(200 -0.037)" fill="#0079fb"/>
            <circle id="Ellipse_243" data-name="Ellipse 243" cx="3" cy="3" r="3" transform="translate(216 -0.037)" fill="#0079fb"/>
            <ellipse id="Ellipse_244" data-name="Ellipse 244" cx="2.5" cy="3" rx="2.5" ry="3" transform="translate(232 -0.037)" fill="#0079fb"/>
            <circle id="Ellipse_245" data-name="Ellipse 245" cx="3" cy="3" r="3" transform="translate(245 -0.037)" fill="#0079fb"/>
          </g>
          <g id="Group_3512" data-name="Group 3512" transform="translate(-808 809.916)">
            <circle id="Ellipse_246" data-name="Ellipse 246" cx="3" cy="3" r="3" transform="translate(0 0.083)" fill="#0079fb"/>
            <circle id="Ellipse_247" data-name="Ellipse 247" cx="3" cy="3" r="3" transform="translate(15 0.083)" fill="#0079fb"/>
            <ellipse id="Ellipse_248" data-name="Ellipse 248" cx="2.5" cy="3" rx="2.5" ry="3" transform="translate(31 0.083)" fill="#0079fb"/>
            <circle id="Ellipse_249" data-name="Ellipse 249" cx="3" cy="3" r="3" transform="translate(46 0.083)" fill="#0079fb"/>
            <circle id="Ellipse_250" data-name="Ellipse 250" cx="3" cy="3" r="3" transform="translate(62 0.083)" fill="#0079fb"/>
            <ellipse id="Ellipse_251" data-name="Ellipse 251" cx="2.5" cy="3" rx="2.5" ry="3" transform="translate(77 0.083)" fill="#0079fb"/>
            <circle id="Ellipse_252" data-name="Ellipse 252" cx="3" cy="3" r="3" transform="translate(92 0.083)" fill="#0079fb"/>
            <circle id="Ellipse_253" data-name="Ellipse 253" cx="3" cy="3" r="3" transform="translate(108 0.083)" fill="#0079fb"/>
            <ellipse id="Ellipse_254" data-name="Ellipse 254" cx="2.5" cy="3" rx="2.5" ry="3" transform="translate(124 0.083)" fill="#0079fb"/>
            <ellipse id="Ellipse_255" data-name="Ellipse 255" cx="2.5" cy="3" rx="2.5" ry="3" transform="translate(139 0.083)" fill="#0079fb"/>
            <ellipse id="Ellipse_256" data-name="Ellipse 256" cx="2.5" cy="3" rx="2.5" ry="3" transform="translate(155 0.083)" fill="#0079fb"/>
            <circle id="Ellipse_257" data-name="Ellipse 257" cx="3" cy="3" r="3" transform="translate(170 0.083)" fill="#0079fb"/>
            <circle id="Ellipse_258" data-name="Ellipse 258" cx="3" cy="3" r="3" transform="translate(185 0.083)" fill="#0079fb"/>
            <circle id="Ellipse_259" data-name="Ellipse 259" cx="3" cy="3" r="3" transform="translate(200 0.083)" fill="#0079fb"/>
            <circle id="Ellipse_260" data-name="Ellipse 260" cx="3" cy="3" r="3" transform="translate(216 0.083)" fill="#0079fb"/>
            <ellipse id="Ellipse_261" data-name="Ellipse 261" cx="2.5" cy="3" rx="2.5" ry="3" transform="translate(232 0.083)" fill="#0079fb"/>
            <circle id="Ellipse_262" data-name="Ellipse 262" cx="3" cy="3" r="3" transform="translate(245 0.083)" fill="#0079fb"/>
          </g>
          <g id="Group_3513" data-name="Group 3513" transform="translate(-808 825.796)">
            <ellipse id="Ellipse_263" data-name="Ellipse 263" cx="3" cy="2.5" rx="3" ry="2.5" transform="translate(0 0.204)" fill="#0079fb"/>
            <ellipse id="Ellipse_264" data-name="Ellipse 264" cx="3" cy="2.5" rx="3" ry="2.5" transform="translate(15 0.204)" fill="#0079fb"/>
            <circle id="Ellipse_265" data-name="Ellipse 265" cx="2.5" cy="2.5" r="2.5" transform="translate(31 0.204)" fill="#0079fb"/>
            <ellipse id="Ellipse_266" data-name="Ellipse 266" cx="3" cy="2.5" rx="3" ry="2.5" transform="translate(46 0.204)" fill="#0079fb"/>
            <ellipse id="Ellipse_267" data-name="Ellipse 267" cx="3" cy="2.5" rx="3" ry="2.5" transform="translate(62 0.204)" fill="#0079fb"/>
            <circle id="Ellipse_268" data-name="Ellipse 268" cx="2.5" cy="2.5" r="2.5" transform="translate(77 0.204)" fill="#0079fb"/>
            <ellipse id="Ellipse_269" data-name="Ellipse 269" cx="3" cy="2.5" rx="3" ry="2.5" transform="translate(92 0.204)" fill="#0079fb"/>
            <ellipse id="Ellipse_270" data-name="Ellipse 270" cx="3" cy="2.5" rx="3" ry="2.5" transform="translate(108 0.204)" fill="#0079fb"/>
            <circle id="Ellipse_271" data-name="Ellipse 271" cx="2.5" cy="2.5" r="2.5" transform="translate(124 0.204)" fill="#0079fb"/>
            <circle id="Ellipse_272" data-name="Ellipse 272" cx="2.5" cy="2.5" r="2.5" transform="translate(139 0.204)" fill="#0079fb"/>
            <circle id="Ellipse_273" data-name="Ellipse 273" cx="2.5" cy="2.5" r="2.5" transform="translate(155 0.204)" fill="#0079fb"/>
            <ellipse id="Ellipse_274" data-name="Ellipse 274" cx="3" cy="2.5" rx="3" ry="2.5" transform="translate(170 0.204)" fill="#0079fb"/>
            <ellipse id="Ellipse_275" data-name="Ellipse 275" cx="3" cy="2.5" rx="3" ry="2.5" transform="translate(185 0.204)" fill="#0079fb"/>
            <ellipse id="Ellipse_276" data-name="Ellipse 276" cx="3" cy="2.5" rx="3" ry="2.5" transform="translate(200 0.204)" fill="#0079fb"/>
            <ellipse id="Ellipse_277" data-name="Ellipse 277" cx="3" cy="2.5" rx="3" ry="2.5" transform="translate(216 0.204)" fill="#0079fb"/>
            <circle id="Ellipse_278" data-name="Ellipse 278" cx="2.5" cy="2.5" r="2.5" transform="translate(232 0.204)" fill="#0079fb"/>
            <ellipse id="Ellipse_279" data-name="Ellipse 279" cx="3" cy="2.5" rx="3" ry="2.5" transform="translate(245 0.204)" fill="#0079fb"/>
          </g>
          <g id="Group_3514" data-name="Group 3514" transform="translate(-808 841.676)">
            <ellipse id="Ellipse_280" data-name="Ellipse 280" cx="3" cy="2.5" rx="3" ry="2.5" transform="translate(0 0.324)" fill="#0079fb"/>
            <ellipse id="Ellipse_281" data-name="Ellipse 281" cx="3" cy="2.5" rx="3" ry="2.5" transform="translate(15 0.324)" fill="#0079fb"/>
            <circle id="Ellipse_282" data-name="Ellipse 282" cx="2.5" cy="2.5" r="2.5" transform="translate(31 0.324)" fill="#0079fb"/>
            <ellipse id="Ellipse_283" data-name="Ellipse 283" cx="3" cy="2.5" rx="3" ry="2.5" transform="translate(46 0.324)" fill="#0079fb"/>
            <ellipse id="Ellipse_284" data-name="Ellipse 284" cx="3" cy="2.5" rx="3" ry="2.5" transform="translate(62 0.324)" fill="#0079fb"/>
            <circle id="Ellipse_285" data-name="Ellipse 285" cx="2.5" cy="2.5" r="2.5" transform="translate(77 0.324)" fill="#0079fb"/>
            <ellipse id="Ellipse_286" data-name="Ellipse 286" cx="3" cy="2.5" rx="3" ry="2.5" transform="translate(92 0.324)" fill="#0079fb"/>
            <ellipse id="Ellipse_287" data-name="Ellipse 287" cx="3" cy="2.5" rx="3" ry="2.5" transform="translate(108 0.324)" fill="#0079fb"/>
            <circle id="Ellipse_288" data-name="Ellipse 288" cx="2.5" cy="2.5" r="2.5" transform="translate(124 0.324)" fill="#0079fb"/>
            <circle id="Ellipse_289" data-name="Ellipse 289" cx="2.5" cy="2.5" r="2.5" transform="translate(139 0.324)" fill="#0079fb"/>
            <circle id="Ellipse_290" data-name="Ellipse 290" cx="2.5" cy="2.5" r="2.5" transform="translate(155 0.324)" fill="#0079fb"/>
            <ellipse id="Ellipse_291" data-name="Ellipse 291" cx="3" cy="2.5" rx="3" ry="2.5" transform="translate(170 0.324)" fill="#0079fb"/>
            <ellipse id="Ellipse_292" data-name="Ellipse 292" cx="3" cy="2.5" rx="3" ry="2.5" transform="translate(185 0.324)" fill="#0079fb"/>
            <ellipse id="Ellipse_293" data-name="Ellipse 293" cx="3" cy="2.5" rx="3" ry="2.5" transform="translate(200 0.324)" fill="#0079fb"/>
            <ellipse id="Ellipse_294" data-name="Ellipse 294" cx="3" cy="2.5" rx="3" ry="2.5" transform="translate(216 0.324)" fill="#0079fb"/>
            <circle id="Ellipse_295" data-name="Ellipse 295" cx="2.5" cy="2.5" r="2.5" transform="translate(232 0.324)" fill="#0079fb"/>
            <ellipse id="Ellipse_296" data-name="Ellipse 296" cx="3" cy="2.5" rx="3" ry="2.5" transform="translate(245 0.324)" fill="#0079fb"/>
          </g>
          <g id="Group_3515" data-name="Group 3515" transform="translate(-808 857.555)">
            <ellipse id="Ellipse_297" data-name="Ellipse 297" cx="3" cy="2.5" rx="3" ry="2.5" transform="translate(0 0.445)" fill="#0079fb"/>
            <ellipse id="Ellipse_298" data-name="Ellipse 298" cx="3" cy="2.5" rx="3" ry="2.5" transform="translate(15 0.445)" fill="#0079fb"/>
            <circle id="Ellipse_299" data-name="Ellipse 299" cx="2.5" cy="2.5" r="2.5" transform="translate(31 0.445)" fill="#0079fb"/>
            <ellipse id="Ellipse_300" data-name="Ellipse 300" cx="3" cy="2.5" rx="3" ry="2.5" transform="translate(46 0.445)" fill="#0079fb"/>
            <ellipse id="Ellipse_301" data-name="Ellipse 301" cx="3" cy="2.5" rx="3" ry="2.5" transform="translate(62 0.445)" fill="#0079fb"/>
            <circle id="Ellipse_302" data-name="Ellipse 302" cx="2.5" cy="2.5" r="2.5" transform="translate(77 0.445)" fill="#0079fb"/>
            <ellipse id="Ellipse_303" data-name="Ellipse 303" cx="3" cy="2.5" rx="3" ry="2.5" transform="translate(92 0.445)" fill="#0079fb"/>
            <ellipse id="Ellipse_304" data-name="Ellipse 304" cx="3" cy="2.5" rx="3" ry="2.5" transform="translate(108 0.445)" fill="#0079fb"/>
            <circle id="Ellipse_305" data-name="Ellipse 305" cx="2.5" cy="2.5" r="2.5" transform="translate(124 0.445)" fill="#0079fb"/>
            <circle id="Ellipse_306" data-name="Ellipse 306" cx="2.5" cy="2.5" r="2.5" transform="translate(139 0.445)" fill="#0079fb"/>
            <circle id="Ellipse_307" data-name="Ellipse 307" cx="2.5" cy="2.5" r="2.5" transform="translate(155 0.445)" fill="#0079fb"/>
            <ellipse id="Ellipse_308" data-name="Ellipse 308" cx="3" cy="2.5" rx="3" ry="2.5" transform="translate(170 0.445)" fill="#0079fb"/>
            <ellipse id="Ellipse_309" data-name="Ellipse 309" cx="3" cy="2.5" rx="3" ry="2.5" transform="translate(185 0.445)" fill="#0079fb"/>
            <ellipse id="Ellipse_310" data-name="Ellipse 310" cx="3" cy="2.5" rx="3" ry="2.5" transform="translate(200 0.445)" fill="#0079fb"/>
            <ellipse id="Ellipse_311" data-name="Ellipse 311" cx="3" cy="2.5" rx="3" ry="2.5" transform="translate(216 0.445)" fill="#0079fb"/>
            <circle id="Ellipse_312" data-name="Ellipse 312" cx="2.5" cy="2.5" r="2.5" transform="translate(232 0.445)" fill="#0079fb"/>
            <ellipse id="Ellipse_313" data-name="Ellipse 313" cx="3" cy="2.5" rx="3" ry="2.5" transform="translate(245 0.445)" fill="#0079fb"/>
          </g>
          <g id="Group_3516" data-name="Group 3516" transform="translate(-808 873.435)">
            <circle id="Ellipse_314" data-name="Ellipse 314" cx="3" cy="3" r="3" transform="translate(0 -0.435)" fill="#0079fb"/>
            <circle id="Ellipse_315" data-name="Ellipse 315" cx="3" cy="3" r="3" transform="translate(15 -0.435)" fill="#0079fb"/>
            <ellipse id="Ellipse_316" data-name="Ellipse 316" cx="2.5" cy="3" rx="2.5" ry="3" transform="translate(31 -0.435)" fill="#0079fb"/>
            <circle id="Ellipse_317" data-name="Ellipse 317" cx="3" cy="3" r="3" transform="translate(46 -0.435)" fill="#0079fb"/>
            <circle id="Ellipse_318" data-name="Ellipse 318" cx="3" cy="3" r="3" transform="translate(62 -0.435)" fill="#0079fb"/>
            <ellipse id="Ellipse_319" data-name="Ellipse 319" cx="2.5" cy="3" rx="2.5" ry="3" transform="translate(77 -0.435)" fill="#0079fb"/>
            <circle id="Ellipse_320" data-name="Ellipse 320" cx="3" cy="3" r="3" transform="translate(92 -0.435)" fill="#0079fb"/>
            <circle id="Ellipse_321" data-name="Ellipse 321" cx="3" cy="3" r="3" transform="translate(108 -0.435)" fill="#0079fb"/>
            <ellipse id="Ellipse_322" data-name="Ellipse 322" cx="2.5" cy="3" rx="2.5" ry="3" transform="translate(124 -0.435)" fill="#0079fb"/>
            <ellipse id="Ellipse_323" data-name="Ellipse 323" cx="2.5" cy="3" rx="2.5" ry="3" transform="translate(139 -0.435)" fill="#0079fb"/>
            <ellipse id="Ellipse_324" data-name="Ellipse 324" cx="2.5" cy="3" rx="2.5" ry="3" transform="translate(155 -0.435)" fill="#0079fb"/>
            <circle id="Ellipse_325" data-name="Ellipse 325" cx="3" cy="3" r="3" transform="translate(170 -0.435)" fill="#0079fb"/>
            <circle id="Ellipse_326" data-name="Ellipse 326" cx="3" cy="3" r="3" transform="translate(185 -0.435)" fill="#0079fb"/>
            <circle id="Ellipse_327" data-name="Ellipse 327" cx="3" cy="3" r="3" transform="translate(200 -0.435)" fill="#0079fb"/>
            <circle id="Ellipse_328" data-name="Ellipse 328" cx="3" cy="3" r="3" transform="translate(216 -0.435)" fill="#0079fb"/>
            <ellipse id="Ellipse_329" data-name="Ellipse 329" cx="2.5" cy="3" rx="2.5" ry="3" transform="translate(232 -0.435)" fill="#0079fb"/>
            <circle id="Ellipse_330" data-name="Ellipse 330" cx="3" cy="3" r="3" transform="translate(245 -0.435)" fill="#0079fb"/>
          </g>
        </g>
      </g>
    </g>
  </g>
</svg>
