<svg xmlns="http://www.w3.org/2000/svg" width="118.367" height="49.968" viewBox="0 0 118.367 49.968">
  <g id="Group_3368" data-name="Group 3368" transform="translate(-140.158 -33.516)">
    <g id="Group_3368-2" data-name="Group 3368" transform="translate(-25.513 -304.988)">
      <g id="Group_30" data-name="Group 30" transform="translate(165.671 338.504)">
        <g id="Group_26" data-name="Group 26" transform="translate(0 12.024)">
          <path id="Path_27" data-name="Path 27" d="M18.141,67.577V59.256A9.255,9.255,0,0,0,17.3,55.3a5.517,5.517,0,0,0-5.147-3.518A6.1,6.1,0,0,0,6.19,57.875V78.206a3.239,3.239,0,0,1-3.02,3.232A3.09,3.09,0,0,1,.01,78.349V62.015c0-3.83-.263-7.393,1.892-10.774A12.139,12.139,0,0,1,12.166,45.6a11.47,11.47,0,0,1,8.222,3.371A14.316,14.316,0,0,1,24.308,58c.092,1.505.023,3.03.023,4.538v5.039a3.094,3.094,0,1,1-6.189,0" transform="translate(0 -45.6)" fill="#0079fb"/>
        </g>
        <g id="Group_27" data-name="Group 27" transform="translate(17.435 26.257)">
          <path id="Path_28" data-name="Path 28" d="M76.683,123.291a12.5,12.5,0,0,1-9.751-4.655,3.611,3.611,0,0,1-.764-2.853,3.538,3.538,0,0,1,1.593-2.415l.311-.2a3.585,3.585,0,0,1,4.719.833,5,5,0,0,0,3.634,1.853,5.128,5.128,0,0,0,5.383-5.12v-7.441a3.722,3.722,0,0,1,3.886-3.71,3.858,3.858,0,0,1,3.551,3.907v8.745h-.094a12.592,12.592,0,0,1-12.468,11.054m-6.743-9.264a2.077,2.077,0,0,0-1.115.325l-.312.2a2.11,2.11,0,0,0-.962,1.458,2.211,2.211,0,0,0,.469,1.746,11.151,11.151,0,0,0,19.794-6.265l.029-.43v-7.567a2.445,2.445,0,0,0-2.21-2.507,2.328,2.328,0,0,0-1.709.644,2.289,2.289,0,0,0-.714,1.667v7.441a6.486,6.486,0,0,1-11.5,4.159,2.309,2.309,0,0,0-1.771-.868" transform="translate(-66.121 -99.58)" fill="#0079fb"/>
        </g>
        <g id="Group_28" data-name="Group 28" transform="translate(7.297)">
          <path id="Path_29" data-name="Path 29" d="M33.044,10.745a5.372,5.372,0,1,0-5.372-5.372,5.372,5.372,0,0,0,5.372,5.372" transform="translate(-27.672)" fill="#0079fb"/>
        </g>
        <g id="Group_29" data-name="Group 29" transform="translate(31.201 14.232)">
          <path id="Path_30" data-name="Path 30" d="M123.7,64.722a5.372,5.372,0,1,1,5.372-5.372,5.379,5.379,0,0,1-5.372,5.372m0-9.429a4.056,4.056,0,1,0,4.057,4.057,4.061,4.061,0,0,0-4.057-4.057" transform="translate(-118.332 -53.977)" fill="#0079fb"/>
        </g>
      </g>
      <g id="Group_31" data-name="Group 31" transform="translate(221 358.58)">
        <path id="Path_4" data-name="Path 4" d="M215.391,69.087V82.97h-2.638l-6.922-8.429V82.97h-3.173V69.087h2.658l6.9,8.429V69.087Z" transform="translate(-202.658 -69.087)" fill="#002776"/>
        <path id="Path_5" data-name="Path 5" d="M277.991,88.5h-8.072a2.512,2.512,0,0,0,1.031,1.567,3.413,3.413,0,0,0,2.023.575,4.088,4.088,0,0,0,1.478-.248,3.578,3.578,0,0,0,1.2-.784L277.3,91.4a5.532,5.532,0,0,1-4.4,1.726,6.963,6.963,0,0,1-3.193-.7,5.157,5.157,0,0,1-2.142-1.954,5.378,5.378,0,0,1-.754-2.836,5.454,5.454,0,0,1,.744-2.826,5.209,5.209,0,0,1,2.043-1.963,6.324,6.324,0,0,1,5.742-.03,4.927,4.927,0,0,1,1.993,1.934,5.765,5.765,0,0,1,.724,2.925Q278.05,87.73,277.991,88.5Zm-7.239-3.431a2.534,2.534,0,0,0-.873,1.626h5.256a2.558,2.558,0,0,0-.873-1.616,2.609,2.609,0,0,0-1.745-.605A2.665,2.665,0,0,0,270.752,85.072Z" transform="translate(-251.792 -79.083)" fill="#002776"/>
        <path id="Path_6" data-name="Path 6" d="M328.318,83.317a4.516,4.516,0,0,1,1.329,3.56v6.088h-2.9V91.637a3.449,3.449,0,0,1-3.253,1.488,5.049,5.049,0,0,1-2.132-.417,3.179,3.179,0,0,1-1.378-1.15,2.994,2.994,0,0,1-.476-1.666,2.78,2.78,0,0,1,1.12-2.34,5.711,5.711,0,0,1,3.461-.853h2.459a1.972,1.972,0,0,0-.615-1.557,2.708,2.708,0,0,0-1.844-.545,5.38,5.38,0,0,0-1.676.268,4.437,4.437,0,0,0-1.4.724l-1.111-2.162A6.706,6.706,0,0,1,322,82.474a9.376,9.376,0,0,1,2.509-.337A5.553,5.553,0,0,1,328.318,83.317Zm-2.638,7.358a2.008,2.008,0,0,0,.873-1.081V88.5h-2.122q-1.9,0-1.9,1.25a1.112,1.112,0,0,0,.466.942,2.1,2.1,0,0,0,1.279.347A2.691,2.691,0,0,0,325.681,90.675Z" transform="translate(-292.164 -79.083)" fill="#002776"/>
        <path id="Path_7" data-name="Path 7" d="M379.213,82.533a5.563,5.563,0,0,1,2.172-.4v2.856q-.516-.04-.694-.04a2.835,2.835,0,0,0-2.082.744,3,3,0,0,0-.754,2.231v5.038h-3.094V82.3h2.955V83.7A3.443,3.443,0,0,1,379.213,82.533Z" transform="translate(-334.481 -79.083)" fill="#002776"/>
        <path id="Path_8" data-name="Path 8" d="M412.6,81.562a6.338,6.338,0,0,1-1.656-4.7V69.087h3.213v7.655q0,3.729,3.094,3.729a2.9,2.9,0,0,0,2.3-.9,4.208,4.208,0,0,0,.793-2.826V69.087h3.173v7.774a6.566,6.566,0,0,1-10.918,4.7Z" transform="translate(-362.197 -69.087)" fill="#002776"/>
      </g>
      <g id="Group_32" data-name="Group 32" transform="translate(219.978 375.499)">
        <path id="Path_9" data-name="Path 9" d="M201.185,142.831a1.452,1.452,0,0,1,0,2.127,1.927,1.927,0,0,1-1.272.386h-1.028v1.26h-.594v-4.16h1.622A1.927,1.927,0,0,1,201.185,142.831Zm-.428,1.756a.955.955,0,0,0,0-1.385,1.341,1.341,0,0,0-.862-.241h-1.01v1.866h1.01A1.34,1.34,0,0,0,200.757,144.587Z" transform="translate(-198.291 -142.195)" fill="#d1deeb"/>
        <path id="Path_10" data-name="Path 10" d="M217.254,146.778a1.594,1.594,0,0,1,.707-.143v.553a1.059,1.059,0,0,0-.131-.006.961.961,0,0,0-.728.276,1.094,1.094,0,0,0-.264.787v1.569h-.57v-3.15h.547v.529A.974.974,0,0,1,217.254,146.778Z" transform="translate(-212.061 -145.405)" fill="#d1deeb"/>
        <path id="Path_11" data-name="Path 11" d="M226.229,149.642a1.507,1.507,0,0,1-.586-.573,1.735,1.735,0,0,1,0-1.658,1.489,1.489,0,0,1,.586-.571,1.835,1.835,0,0,1,1.685,0,1.5,1.5,0,0,1,.582.571,1.735,1.735,0,0,1,0,1.658,1.513,1.513,0,0,1-.582.573,1.807,1.807,0,0,1-1.685,0Zm1.387-.431a.986.986,0,0,0,.378-.392,1.3,1.3,0,0,0,0-1.159.967.967,0,0,0-.378-.389,1.152,1.152,0,0,0-1.088,0,.985.985,0,0,0-.38.389,1.271,1.271,0,0,0,0,1.159,1,1,0,0,0,.38.392,1.13,1.13,0,0,0,1.088,0Z" transform="translate(-219.081 -145.405)" fill="#d1deeb"/>
        <path id="Path_12" data-name="Path 12" d="M243.092,147.472a.854.854,0,0,1-.309.163,1.3,1.3,0,0,1-.38.057,1.008,1.008,0,0,1-.737-.256.976.976,0,0,1-.261-.731v-1.729h-.535v-.469h.535v-.689h.57v.689h.9v.469h-.9v1.705a.553.553,0,0,0,.128.392.476.476,0,0,0,.366.137.686.686,0,0,0,.445-.149Z" transform="translate(-230.905 -143.246)" fill="#d1deeb"/>
        <path id="Path_13" data-name="Path 13" d="M255.193,148.429h-2.555a.991.991,0,0,0,.365.669,1.2,1.2,0,0,0,.776.252,1.168,1.168,0,0,0,.909-.38l.315.368a1.372,1.372,0,0,1-.532.38,2,2,0,0,1-1.6-.074,1.463,1.463,0,0,1-.6-.574,1.645,1.645,0,0,1-.211-.832,1.67,1.67,0,0,1,.205-.826,1.473,1.473,0,0,1,.565-.573,1.607,1.607,0,0,1,.811-.2,1.576,1.576,0,0,1,.805.2,1.443,1.443,0,0,1,.553.573,1.749,1.749,0,0,1,.2.844A1.622,1.622,0,0,1,255.193,148.429Zm-2.231-1.063a1,1,0,0,0-.324.653h2.021a1.015,1.015,0,0,0-.324-.651,1.063,1.063,0,0,0-1.373,0Z" transform="translate(-239.481 -145.405)" fill="#d1deeb"/>
        <path id="Path_14" data-name="Path 14" d="M268.411,149.642a1.524,1.524,0,0,1-.591-.573,1.713,1.713,0,0,1,0-1.658,1.506,1.506,0,0,1,.591-.571,1.769,1.769,0,0,1,.859-.2,1.649,1.649,0,0,1,.763.172,1.228,1.228,0,0,1,.52.5l-.434.279a.968.968,0,0,0-.368-.339,1.051,1.051,0,0,0-.487-.113,1.126,1.126,0,0,0-.556.136.974.974,0,0,0-.386.389,1.283,1.283,0,0,0,0,1.165.972.972,0,0,0,.386.389,1.126,1.126,0,0,0,.556.137,1.051,1.051,0,0,0,.487-.113.968.968,0,0,0,.368-.338l.434.273a1.244,1.244,0,0,1-.52.5,1.622,1.622,0,0,1-.763.176A1.748,1.748,0,0,1,268.411,149.642Z" transform="translate(-251.383 -145.405)" fill="#d1deeb"/>
        <path id="Path_15" data-name="Path 15" d="M283.642,147.472a.855.855,0,0,1-.309.163,1.3,1.3,0,0,1-.38.057,1.009,1.009,0,0,1-.737-.256.976.976,0,0,1-.261-.731v-1.729h-.535v-.469h.535v-.689h.57v.689h.9v.469h-.9v1.705a.552.552,0,0,0,.128.392.475.475,0,0,0,.366.137.686.686,0,0,0,.445-.149Z" transform="translate(-261.963 -143.246)" fill="#d1deeb"/>
        <path id="Path_16" data-name="Path 16" d="M303.8,146.762l-1.177,3.15h-.547l-.909-2.389-.921,2.389H299.7l-1.171-3.15h.541l.915,2.508.951-2.508h.481l.933,2.52.939-2.52Z" transform="translate(-275.071 -145.502)" fill="#d1deeb"/>
        <path id="Path_17" data-name="Path 17" d="M326.152,142.956a1.368,1.368,0,0,1,.353,1.019v1.813h-.57V144.04a.966.966,0,0,0-.22-.689.825.825,0,0,0-.63-.232.981.981,0,0,0-.731.271,1.057,1.057,0,0,0-.267.775v1.622h-.571v-4.41h.571v1.705a1.177,1.177,0,0,1,.466-.35,1.6,1.6,0,0,1,.645-.125A1.3,1.3,0,0,1,326.152,142.956Z" transform="translate(-294.208 -141.378)" fill="#d1deeb"/>
        <path id="Path_18" data-name="Path 18" d="M342.159,146.956a1.24,1.24,0,0,1,.348.957v1.9h-.541V149.4a.9.9,0,0,1-.407.336,1.558,1.558,0,0,1-.627.116,1.31,1.31,0,0,1-.847-.256.878.878,0,0,1-.015-1.34,1.492,1.492,0,0,1,.963-.253h.9v-.113a.728.728,0,0,0-.214-.565.9.9,0,0,0-.63-.2,1.665,1.665,0,0,0-.547.092,1.413,1.413,0,0,0-.451.246l-.238-.428a1.719,1.719,0,0,1,.582-.3,2.429,2.429,0,0,1,.719-.1A1.424,1.424,0,0,1,342.159,146.956Zm-.568,2.308a.831.831,0,0,0,.345-.413v-.44h-.88q-.725,0-.725.487a.441.441,0,0,0,.184.374.842.842,0,0,0,.511.137A1.057,1.057,0,0,0,341.591,149.264Z" transform="translate(-306.655 -145.405)" fill="#d1deeb"/>
        <path id="Path_19" data-name="Path 19" d="M356.283,147.472a.854.854,0,0,1-.309.163,1.3,1.3,0,0,1-.38.057,1.008,1.008,0,0,1-.737-.256.976.976,0,0,1-.261-.731v-1.729h-.535v-.469h.535v-.689h.57v.689h.9v.469h-.9v1.705a.553.553,0,0,0,.128.392.476.476,0,0,0,.366.137.686.686,0,0,0,.445-.149Z" transform="translate(-317.604 -143.246)" fill="#d1deeb"/>
        <path id="Path_20" data-name="Path 20" d="M378.214,146.98a1.38,1.38,0,0,1,.348,1.022v1.813h-.57v-1.747a.993.993,0,0,0-.211-.689.774.774,0,0,0-.6-.232.9.9,0,0,0-.689.271,1.086,1.086,0,0,0-.256.775v1.622h-.57v-1.747a.993.993,0,0,0-.211-.689.774.774,0,0,0-.6-.232.9.9,0,0,0-.689.271,1.087,1.087,0,0,0-.255.775v1.622h-.571v-3.15h.547v.469a1.106,1.106,0,0,1,.452-.372,1.515,1.515,0,0,1,.636-.128,1.394,1.394,0,0,1,.653.148,1.035,1.035,0,0,1,.44.434,1.208,1.208,0,0,1,.5-.428,1.617,1.617,0,0,1,.716-.154A1.279,1.279,0,0,1,378.214,146.98Z" transform="translate(-332.365 -145.405)" fill="#d1deeb"/>
        <path id="Path_21" data-name="Path 21" d="M401.521,146.956a1.239,1.239,0,0,1,.348.957v1.9h-.541V149.4a.9.9,0,0,1-.407.336,1.558,1.558,0,0,1-.627.116,1.311,1.311,0,0,1-.847-.256.878.878,0,0,1-.015-1.34,1.492,1.492,0,0,1,.963-.253h.9v-.113a.727.727,0,0,0-.214-.565.9.9,0,0,0-.63-.2,1.665,1.665,0,0,0-.547.092,1.411,1.411,0,0,0-.451.246l-.238-.428a1.724,1.724,0,0,1,.582-.3,2.432,2.432,0,0,1,.719-.1A1.424,1.424,0,0,1,401.521,146.956Zm-.568,2.308a.831.831,0,0,0,.345-.413v-.44h-.879q-.725,0-.725.487a.441.441,0,0,0,.184.374.842.842,0,0,0,.511.137A1.057,1.057,0,0,0,400.953,149.264Z" transform="translate(-352.124 -145.405)" fill="#d1deeb"/>
        <path id="Path_22" data-name="Path 22" d="M415.646,147.472a.854.854,0,0,1-.309.163,1.3,1.3,0,0,1-.38.057,1.009,1.009,0,0,1-.737-.256.976.976,0,0,1-.261-.731v-1.729h-.535v-.469h.535v-.689h.57v.689h.9v.469h-.9v1.705a.552.552,0,0,0,.128.392.475.475,0,0,0,.365.137.687.687,0,0,0,.446-.149Z" transform="translate(-363.073 -143.246)" fill="#d1deeb"/>
        <path id="Path_23" data-name="Path 23" d="M426.157,147.472a.854.854,0,0,1-.309.163,1.3,1.3,0,0,1-.38.057,1.008,1.008,0,0,1-.737-.256.976.976,0,0,1-.261-.731v-1.729h-.535v-.469h.535v-.689h.57v.689h.9v.469h-.9v1.705a.553.553,0,0,0,.128.392.476.476,0,0,0,.366.137.687.687,0,0,0,.446-.149Z" transform="translate(-371.124 -143.246)" fill="#d1deeb"/>
        <path id="Path_24" data-name="Path 24" d="M438.258,148.429H435.7a.99.99,0,0,0,.366.669,1.194,1.194,0,0,0,.775.252,1.168,1.168,0,0,0,.909-.38l.315.368a1.374,1.374,0,0,1-.532.38,2,2,0,0,1-1.6-.074,1.463,1.463,0,0,1-.6-.574,1.645,1.645,0,0,1-.211-.832,1.668,1.668,0,0,1,.205-.826,1.471,1.471,0,0,1,.565-.573,1.607,1.607,0,0,1,.811-.2,1.576,1.576,0,0,1,.805.2,1.443,1.443,0,0,1,.553.573,1.749,1.749,0,0,1,.2.844A1.62,1.62,0,0,1,438.258,148.429Zm-2.231-1.063a1,1,0,0,0-.324.653h2.021a1.014,1.014,0,0,0-.324-.651,1.063,1.063,0,0,0-1.373,0Z" transform="translate(-379.701 -145.405)" fill="#d1deeb"/>
        <path id="Path_25" data-name="Path 25" d="M452.9,146.778a1.594,1.594,0,0,1,.707-.143v.553a1.057,1.057,0,0,0-.131-.006.96.96,0,0,0-.728.276,1.094,1.094,0,0,0-.264.787v1.569h-.571v-3.15h.547v.529A.973.973,0,0,1,452.9,146.778Z" transform="translate(-392.556 -145.405)" fill="#d1deeb"/>
        <path id="Path_26" data-name="Path 26" d="M461.183,149.746a1.63,1.63,0,0,1-.558-.264l.238-.452a1.7,1.7,0,0,0,.5.238,2.078,2.078,0,0,0,.6.089q.748,0,.749-.428a.277.277,0,0,0-.1-.226.64.64,0,0,0-.253-.122q-.151-.039-.431-.086a4.25,4.25,0,0,1-.621-.137.957.957,0,0,1-.413-.261.726.726,0,0,1-.173-.517.807.807,0,0,1,.357-.686,1.6,1.6,0,0,1,.957-.258,2.636,2.636,0,0,1,.63.077,1.7,1.7,0,0,1,.517.208l-.244.452a1.636,1.636,0,0,0-.909-.25,1.051,1.051,0,0,0-.553.119.358.358,0,0,0-.19.315.3.3,0,0,0,.107.244.682.682,0,0,0,.264.131q.158.042.443.095a4.869,4.869,0,0,1,.615.14.922.922,0,0,1,.4.253.7.7,0,0,1,.166.5.787.787,0,0,1-.366.681,1.725,1.725,0,0,1-1,.253A2.632,2.632,0,0,1,461.183,149.746Z" transform="translate(-399.227 -145.405)" fill="#d1deeb"/>
      </g>
    </g>
  </g>
</svg>
