<svg xmlns="http://www.w3.org/2000/svg" width="490" height="414" viewBox="0 0 490 414">
  <g id="Group_3473" data-name="Group 3473" transform="translate(808 -667)" opacity="0.53">
    <g id="Group_40" data-name="Group 40">
      <circle id="Ellipse_44" data-name="Ellipse 44" cx="5.5" cy="5.5" r="5.5" transform="translate(-808 667)" fill="#f8fcff"/>
      <circle id="Ellipse_45" data-name="Ellipse 45" cx="5.5" cy="5.5" r="5.5" transform="translate(-778 667)" fill="#f8fcff"/>
      <circle id="Ellipse_46" data-name="Ellipse 46" cx="5.5" cy="5.5" r="5.5" transform="translate(-748 667)" fill="#f8fcff"/>
      <circle id="Ellipse_47" data-name="Ellipse 47" cx="5.5" cy="5.5" r="5.5" transform="translate(-718 667)" fill="#f8fcff"/>
      <circle id="Ellipse_48" data-name="Ellipse 48" cx="5.5" cy="5.5" r="5.5" transform="translate(-687 667)" fill="#f8fcff"/>
      <circle id="Ellipse_49" data-name="Ellipse 49" cx="5.5" cy="5.5" r="5.5" transform="translate(-658 667)" fill="#f8fcff"/>
      <circle id="Ellipse_50" data-name="Ellipse 50" cx="5.5" cy="5.5" r="5.5" transform="translate(-628 667)" fill="#f8fcff"/>
      <circle id="Ellipse_51" data-name="Ellipse 51" cx="5.5" cy="5.5" r="5.5" transform="translate(-597 667)" fill="#f8fcff"/>
      <ellipse id="Ellipse_52" data-name="Ellipse 52" cx="5" cy="5.5" rx="5" ry="5.5" transform="translate(-566 667)" fill="#f8fcff"/>
      <circle id="Ellipse_53" data-name="Ellipse 53" cx="5.5" cy="5.5" r="5.5" transform="translate(-537 667)" fill="#f8fcff"/>
      <circle id="Ellipse_54" data-name="Ellipse 54" cx="5.5" cy="5.5" r="5.5" transform="translate(-506 667)" fill="#f8fcff"/>
      <circle id="Ellipse_55" data-name="Ellipse 55" cx="5.5" cy="5.5" r="5.5" transform="translate(-476 667)" fill="#f8fcff"/>
      <circle id="Ellipse_56" data-name="Ellipse 56" cx="5.5" cy="5.5" r="5.5" transform="translate(-447 667)" fill="#f8fcff"/>
      <circle id="Ellipse_57" data-name="Ellipse 57" cx="5.5" cy="5.5" r="5.5" transform="translate(-417 667)" fill="#f8fcff"/>
      <circle id="Ellipse_58" data-name="Ellipse 58" cx="5.5" cy="5.5" r="5.5" transform="translate(-386 667)" fill="#f8fcff"/>
      <circle id="Ellipse_59" data-name="Ellipse 59" cx="5.5" cy="5.5" r="5.5" transform="translate(-356 667)" fill="#f8fcff"/>
      <circle id="Ellipse_60" data-name="Ellipse 60" cx="5.5" cy="5.5" r="5.5" transform="translate(-329 667)" fill="#f8fcff"/>
    </g>
    <g id="Group_40-2" data-name="Group 40" transform="translate(0 31)">
      <circle id="Ellipse_44-2" data-name="Ellipse 44" cx="5.5" cy="5.5" r="5.5" transform="translate(-808 667)" fill="#f8fcff"/>
      <circle id="Ellipse_45-2" data-name="Ellipse 45" cx="5.5" cy="5.5" r="5.5" transform="translate(-778 667)" fill="#f8fcff"/>
      <circle id="Ellipse_46-2" data-name="Ellipse 46" cx="5.5" cy="5.5" r="5.5" transform="translate(-748 667)" fill="#f8fcff"/>
      <circle id="Ellipse_47-2" data-name="Ellipse 47" cx="5.5" cy="5.5" r="5.5" transform="translate(-718 667)" fill="#f8fcff"/>
      <circle id="Ellipse_48-2" data-name="Ellipse 48" cx="5.5" cy="5.5" r="5.5" transform="translate(-687 667)" fill="#f8fcff"/>
      <circle id="Ellipse_49-2" data-name="Ellipse 49" cx="5.5" cy="5.5" r="5.5" transform="translate(-658 667)" fill="#f8fcff"/>
      <circle id="Ellipse_50-2" data-name="Ellipse 50" cx="5.5" cy="5.5" r="5.5" transform="translate(-628 667)" fill="#f8fcff"/>
      <circle id="Ellipse_51-2" data-name="Ellipse 51" cx="5.5" cy="5.5" r="5.5" transform="translate(-597 667)" fill="#f8fcff"/>
      <ellipse id="Ellipse_52-2" data-name="Ellipse 52" cx="5" cy="5.5" rx="5" ry="5.5" transform="translate(-566 667)" fill="#f8fcff"/>
      <circle id="Ellipse_53-2" data-name="Ellipse 53" cx="5.5" cy="5.5" r="5.5" transform="translate(-537 667)" fill="#f8fcff"/>
      <circle id="Ellipse_54-2" data-name="Ellipse 54" cx="5.5" cy="5.5" r="5.5" transform="translate(-506 667)" fill="#f8fcff"/>
      <circle id="Ellipse_55-2" data-name="Ellipse 55" cx="5.5" cy="5.5" r="5.5" transform="translate(-476 667)" fill="#f8fcff"/>
      <circle id="Ellipse_56-2" data-name="Ellipse 56" cx="5.5" cy="5.5" r="5.5" transform="translate(-447 667)" fill="#f8fcff"/>
      <circle id="Ellipse_57-2" data-name="Ellipse 57" cx="5.5" cy="5.5" r="5.5" transform="translate(-417 667)" fill="#f8fcff"/>
      <circle id="Ellipse_58-2" data-name="Ellipse 58" cx="5.5" cy="5.5" r="5.5" transform="translate(-386 667)" fill="#f8fcff"/>
      <circle id="Ellipse_59-2" data-name="Ellipse 59" cx="5.5" cy="5.5" r="5.5" transform="translate(-356 667)" fill="#f8fcff"/>
      <circle id="Ellipse_60-2" data-name="Ellipse 60" cx="5.5" cy="5.5" r="5.5" transform="translate(-329 667)" fill="#f8fcff"/>
    </g>
    <g id="Group_40-3" data-name="Group 40" transform="translate(0 62)">
      <circle id="Ellipse_44-3" data-name="Ellipse 44" cx="5.5" cy="5.5" r="5.5" transform="translate(-808 667)" fill="#f8fcff"/>
      <circle id="Ellipse_45-3" data-name="Ellipse 45" cx="5.5" cy="5.5" r="5.5" transform="translate(-778 667)" fill="#f8fcff"/>
      <circle id="Ellipse_46-3" data-name="Ellipse 46" cx="5.5" cy="5.5" r="5.5" transform="translate(-748 667)" fill="#f8fcff"/>
      <circle id="Ellipse_47-3" data-name="Ellipse 47" cx="5.5" cy="5.5" r="5.5" transform="translate(-718 667)" fill="#f8fcff"/>
      <circle id="Ellipse_48-3" data-name="Ellipse 48" cx="5.5" cy="5.5" r="5.5" transform="translate(-687 667)" fill="#f8fcff"/>
      <circle id="Ellipse_49-3" data-name="Ellipse 49" cx="5.5" cy="5.5" r="5.5" transform="translate(-658 667)" fill="#f8fcff"/>
      <circle id="Ellipse_50-3" data-name="Ellipse 50" cx="5.5" cy="5.5" r="5.5" transform="translate(-628 667)" fill="#f8fcff"/>
      <circle id="Ellipse_51-3" data-name="Ellipse 51" cx="5.5" cy="5.5" r="5.5" transform="translate(-597 667)" fill="#f8fcff"/>
      <ellipse id="Ellipse_52-3" data-name="Ellipse 52" cx="5" cy="5.5" rx="5" ry="5.5" transform="translate(-566 667)" fill="#f8fcff"/>
      <circle id="Ellipse_53-3" data-name="Ellipse 53" cx="5.5" cy="5.5" r="5.5" transform="translate(-537 667)" fill="#f8fcff"/>
      <circle id="Ellipse_54-3" data-name="Ellipse 54" cx="5.5" cy="5.5" r="5.5" transform="translate(-506 667)" fill="#f8fcff"/>
      <circle id="Ellipse_55-3" data-name="Ellipse 55" cx="5.5" cy="5.5" r="5.5" transform="translate(-476 667)" fill="#f8fcff"/>
      <circle id="Ellipse_56-3" data-name="Ellipse 56" cx="5.5" cy="5.5" r="5.5" transform="translate(-447 667)" fill="#f8fcff"/>
      <circle id="Ellipse_57-3" data-name="Ellipse 57" cx="5.5" cy="5.5" r="5.5" transform="translate(-417 667)" fill="#f8fcff"/>
      <circle id="Ellipse_58-3" data-name="Ellipse 58" cx="5.5" cy="5.5" r="5.5" transform="translate(-386 667)" fill="#f8fcff"/>
      <circle id="Ellipse_59-3" data-name="Ellipse 59" cx="5.5" cy="5.5" r="5.5" transform="translate(-356 667)" fill="#f8fcff"/>
      <circle id="Ellipse_60-3" data-name="Ellipse 60" cx="5.5" cy="5.5" r="5.5" transform="translate(-329 667)" fill="#f8fcff"/>
    </g>
    <g id="Group_40-4" data-name="Group 40" transform="translate(0 93)">
      <circle id="Ellipse_44-4" data-name="Ellipse 44" cx="5.5" cy="5.5" r="5.5" transform="translate(-808 667)" fill="#f8fcff"/>
      <circle id="Ellipse_45-4" data-name="Ellipse 45" cx="5.5" cy="5.5" r="5.5" transform="translate(-778 667)" fill="#f8fcff"/>
      <circle id="Ellipse_46-4" data-name="Ellipse 46" cx="5.5" cy="5.5" r="5.5" transform="translate(-748 667)" fill="#f8fcff"/>
      <circle id="Ellipse_47-4" data-name="Ellipse 47" cx="5.5" cy="5.5" r="5.5" transform="translate(-718 667)" fill="#f8fcff"/>
      <circle id="Ellipse_48-4" data-name="Ellipse 48" cx="5.5" cy="5.5" r="5.5" transform="translate(-687 667)" fill="#f8fcff"/>
      <circle id="Ellipse_49-4" data-name="Ellipse 49" cx="5.5" cy="5.5" r="5.5" transform="translate(-658 667)" fill="#f8fcff"/>
      <circle id="Ellipse_50-4" data-name="Ellipse 50" cx="5.5" cy="5.5" r="5.5" transform="translate(-628 667)" fill="#f8fcff"/>
      <circle id="Ellipse_51-4" data-name="Ellipse 51" cx="5.5" cy="5.5" r="5.5" transform="translate(-597 667)" fill="#f8fcff"/>
      <ellipse id="Ellipse_52-4" data-name="Ellipse 52" cx="5" cy="5.5" rx="5" ry="5.5" transform="translate(-566 667)" fill="#f8fcff"/>
      <circle id="Ellipse_53-4" data-name="Ellipse 53" cx="5.5" cy="5.5" r="5.5" transform="translate(-537 667)" fill="#f8fcff"/>
      <circle id="Ellipse_54-4" data-name="Ellipse 54" cx="5.5" cy="5.5" r="5.5" transform="translate(-506 667)" fill="#f8fcff"/>
      <circle id="Ellipse_55-4" data-name="Ellipse 55" cx="5.5" cy="5.5" r="5.5" transform="translate(-476 667)" fill="#f8fcff"/>
      <circle id="Ellipse_56-4" data-name="Ellipse 56" cx="5.5" cy="5.5" r="5.5" transform="translate(-447 667)" fill="#f8fcff"/>
      <circle id="Ellipse_57-4" data-name="Ellipse 57" cx="5.5" cy="5.5" r="5.5" transform="translate(-417 667)" fill="#f8fcff"/>
      <circle id="Ellipse_58-4" data-name="Ellipse 58" cx="5.5" cy="5.5" r="5.5" transform="translate(-386 667)" fill="#f8fcff"/>
      <circle id="Ellipse_59-4" data-name="Ellipse 59" cx="5.5" cy="5.5" r="5.5" transform="translate(-356 667)" fill="#f8fcff"/>
      <circle id="Ellipse_60-4" data-name="Ellipse 60" cx="5.5" cy="5.5" r="5.5" transform="translate(-329 667)" fill="#f8fcff"/>
    </g>
    <g id="Group_40-5" data-name="Group 40" transform="translate(0 124)">
      <circle id="Ellipse_44-5" data-name="Ellipse 44" cx="5.5" cy="5.5" r="5.5" transform="translate(-808 667)" fill="#f8fcff"/>
      <circle id="Ellipse_45-5" data-name="Ellipse 45" cx="5.5" cy="5.5" r="5.5" transform="translate(-778 667)" fill="#f8fcff"/>
      <circle id="Ellipse_46-5" data-name="Ellipse 46" cx="5.5" cy="5.5" r="5.5" transform="translate(-748 667)" fill="#f8fcff"/>
      <circle id="Ellipse_47-5" data-name="Ellipse 47" cx="5.5" cy="5.5" r="5.5" transform="translate(-718 667)" fill="#f8fcff"/>
      <circle id="Ellipse_48-5" data-name="Ellipse 48" cx="5.5" cy="5.5" r="5.5" transform="translate(-687 667)" fill="#f8fcff"/>
      <circle id="Ellipse_49-5" data-name="Ellipse 49" cx="5.5" cy="5.5" r="5.5" transform="translate(-658 667)" fill="#f8fcff"/>
      <circle id="Ellipse_50-5" data-name="Ellipse 50" cx="5.5" cy="5.5" r="5.5" transform="translate(-628 667)" fill="#f8fcff"/>
      <circle id="Ellipse_51-5" data-name="Ellipse 51" cx="5.5" cy="5.5" r="5.5" transform="translate(-597 667)" fill="#f8fcff"/>
      <ellipse id="Ellipse_52-5" data-name="Ellipse 52" cx="5" cy="5.5" rx="5" ry="5.5" transform="translate(-566 667)" fill="#f8fcff"/>
      <circle id="Ellipse_53-5" data-name="Ellipse 53" cx="5.5" cy="5.5" r="5.5" transform="translate(-537 667)" fill="#f8fcff"/>
      <circle id="Ellipse_54-5" data-name="Ellipse 54" cx="5.5" cy="5.5" r="5.5" transform="translate(-506 667)" fill="#f8fcff"/>
      <circle id="Ellipse_55-5" data-name="Ellipse 55" cx="5.5" cy="5.5" r="5.5" transform="translate(-476 667)" fill="#f8fcff"/>
      <circle id="Ellipse_56-5" data-name="Ellipse 56" cx="5.5" cy="5.5" r="5.5" transform="translate(-447 667)" fill="#f8fcff"/>
      <circle id="Ellipse_57-5" data-name="Ellipse 57" cx="5.5" cy="5.5" r="5.5" transform="translate(-417 667)" fill="#f8fcff"/>
      <circle id="Ellipse_58-5" data-name="Ellipse 58" cx="5.5" cy="5.5" r="5.5" transform="translate(-386 667)" fill="#f8fcff"/>
      <circle id="Ellipse_59-5" data-name="Ellipse 59" cx="5.5" cy="5.5" r="5.5" transform="translate(-356 667)" fill="#f8fcff"/>
      <circle id="Ellipse_60-5" data-name="Ellipse 60" cx="5.5" cy="5.5" r="5.5" transform="translate(-329 667)" fill="#f8fcff"/>
    </g>
    <g id="Group_40-6" data-name="Group 40" transform="translate(0 155)">
      <circle id="Ellipse_44-6" data-name="Ellipse 44" cx="5.5" cy="5.5" r="5.5" transform="translate(-808 667)" fill="#f8fcff"/>
      <circle id="Ellipse_45-6" data-name="Ellipse 45" cx="5.5" cy="5.5" r="5.5" transform="translate(-778 667)" fill="#f8fcff"/>
      <circle id="Ellipse_46-6" data-name="Ellipse 46" cx="5.5" cy="5.5" r="5.5" transform="translate(-748 667)" fill="#f8fcff"/>
      <circle id="Ellipse_47-6" data-name="Ellipse 47" cx="5.5" cy="5.5" r="5.5" transform="translate(-718 667)" fill="#f8fcff"/>
      <circle id="Ellipse_48-6" data-name="Ellipse 48" cx="5.5" cy="5.5" r="5.5" transform="translate(-687 667)" fill="#f8fcff"/>
      <circle id="Ellipse_49-6" data-name="Ellipse 49" cx="5.5" cy="5.5" r="5.5" transform="translate(-658 667)" fill="#f8fcff"/>
      <circle id="Ellipse_50-6" data-name="Ellipse 50" cx="5.5" cy="5.5" r="5.5" transform="translate(-628 667)" fill="#f8fcff"/>
      <circle id="Ellipse_51-6" data-name="Ellipse 51" cx="5.5" cy="5.5" r="5.5" transform="translate(-597 667)" fill="#f8fcff"/>
      <ellipse id="Ellipse_52-6" data-name="Ellipse 52" cx="5" cy="5.5" rx="5" ry="5.5" transform="translate(-566 667)" fill="#f8fcff"/>
      <circle id="Ellipse_53-6" data-name="Ellipse 53" cx="5.5" cy="5.5" r="5.5" transform="translate(-537 667)" fill="#f8fcff"/>
      <circle id="Ellipse_54-6" data-name="Ellipse 54" cx="5.5" cy="5.5" r="5.5" transform="translate(-506 667)" fill="#f8fcff"/>
      <circle id="Ellipse_55-6" data-name="Ellipse 55" cx="5.5" cy="5.5" r="5.5" transform="translate(-476 667)" fill="#f8fcff"/>
      <circle id="Ellipse_56-6" data-name="Ellipse 56" cx="5.5" cy="5.5" r="5.5" transform="translate(-447 667)" fill="#f8fcff"/>
      <circle id="Ellipse_57-6" data-name="Ellipse 57" cx="5.5" cy="5.5" r="5.5" transform="translate(-417 667)" fill="#f8fcff"/>
      <circle id="Ellipse_58-6" data-name="Ellipse 58" cx="5.5" cy="5.5" r="5.5" transform="translate(-386 667)" fill="#f8fcff"/>
      <circle id="Ellipse_59-6" data-name="Ellipse 59" cx="5.5" cy="5.5" r="5.5" transform="translate(-356 667)" fill="#f8fcff"/>
      <circle id="Ellipse_60-6" data-name="Ellipse 60" cx="5.5" cy="5.5" r="5.5" transform="translate(-329 667)" fill="#f8fcff"/>
    </g>
    <g id="Group_40-7" data-name="Group 40" transform="translate(0 186)">
      <circle id="Ellipse_44-7" data-name="Ellipse 44" cx="5.5" cy="5.5" r="5.5" transform="translate(-808 667)" fill="#f8fcff"/>
      <circle id="Ellipse_45-7" data-name="Ellipse 45" cx="5.5" cy="5.5" r="5.5" transform="translate(-778 667)" fill="#f8fcff"/>
      <circle id="Ellipse_46-7" data-name="Ellipse 46" cx="5.5" cy="5.5" r="5.5" transform="translate(-748 667)" fill="#f8fcff"/>
      <circle id="Ellipse_47-7" data-name="Ellipse 47" cx="5.5" cy="5.5" r="5.5" transform="translate(-718 667)" fill="#f8fcff"/>
      <circle id="Ellipse_48-7" data-name="Ellipse 48" cx="5.5" cy="5.5" r="5.5" transform="translate(-687 667)" fill="#f8fcff"/>
      <circle id="Ellipse_49-7" data-name="Ellipse 49" cx="5.5" cy="5.5" r="5.5" transform="translate(-658 667)" fill="#f8fcff"/>
      <circle id="Ellipse_50-7" data-name="Ellipse 50" cx="5.5" cy="5.5" r="5.5" transform="translate(-628 667)" fill="#f8fcff"/>
      <circle id="Ellipse_51-7" data-name="Ellipse 51" cx="5.5" cy="5.5" r="5.5" transform="translate(-597 667)" fill="#f8fcff"/>
      <ellipse id="Ellipse_52-7" data-name="Ellipse 52" cx="5" cy="5.5" rx="5" ry="5.5" transform="translate(-566 667)" fill="#f8fcff"/>
      <circle id="Ellipse_53-7" data-name="Ellipse 53" cx="5.5" cy="5.5" r="5.5" transform="translate(-537 667)" fill="#f8fcff"/>
      <circle id="Ellipse_54-7" data-name="Ellipse 54" cx="5.5" cy="5.5" r="5.5" transform="translate(-506 667)" fill="#f8fcff"/>
      <circle id="Ellipse_55-7" data-name="Ellipse 55" cx="5.5" cy="5.5" r="5.5" transform="translate(-476 667)" fill="#f8fcff"/>
      <circle id="Ellipse_56-7" data-name="Ellipse 56" cx="5.5" cy="5.5" r="5.5" transform="translate(-447 667)" fill="#f8fcff"/>
      <circle id="Ellipse_57-7" data-name="Ellipse 57" cx="5.5" cy="5.5" r="5.5" transform="translate(-417 667)" fill="#f8fcff"/>
      <circle id="Ellipse_58-7" data-name="Ellipse 58" cx="5.5" cy="5.5" r="5.5" transform="translate(-386 667)" fill="#f8fcff"/>
      <circle id="Ellipse_59-7" data-name="Ellipse 59" cx="5.5" cy="5.5" r="5.5" transform="translate(-356 667)" fill="#f8fcff"/>
      <circle id="Ellipse_60-7" data-name="Ellipse 60" cx="5.5" cy="5.5" r="5.5" transform="translate(-329 667)" fill="#f8fcff"/>
    </g>
    <g id="Group_40-8" data-name="Group 40" transform="translate(0 217)">
      <circle id="Ellipse_44-8" data-name="Ellipse 44" cx="5.5" cy="5.5" r="5.5" transform="translate(-808 667)" fill="#f8fcff"/>
      <circle id="Ellipse_45-8" data-name="Ellipse 45" cx="5.5" cy="5.5" r="5.5" transform="translate(-778 667)" fill="#f8fcff"/>
      <circle id="Ellipse_46-8" data-name="Ellipse 46" cx="5.5" cy="5.5" r="5.5" transform="translate(-748 667)" fill="#f8fcff"/>
      <circle id="Ellipse_47-8" data-name="Ellipse 47" cx="5.5" cy="5.5" r="5.5" transform="translate(-718 667)" fill="#f8fcff"/>
      <circle id="Ellipse_48-8" data-name="Ellipse 48" cx="5.5" cy="5.5" r="5.5" transform="translate(-687 667)" fill="#f8fcff"/>
      <circle id="Ellipse_49-8" data-name="Ellipse 49" cx="5.5" cy="5.5" r="5.5" transform="translate(-658 667)" fill="#f8fcff"/>
      <circle id="Ellipse_50-8" data-name="Ellipse 50" cx="5.5" cy="5.5" r="5.5" transform="translate(-628 667)" fill="#f8fcff"/>
      <circle id="Ellipse_51-8" data-name="Ellipse 51" cx="5.5" cy="5.5" r="5.5" transform="translate(-597 667)" fill="#f8fcff"/>
      <ellipse id="Ellipse_52-8" data-name="Ellipse 52" cx="5" cy="5.5" rx="5" ry="5.5" transform="translate(-566 667)" fill="#f8fcff"/>
      <circle id="Ellipse_53-8" data-name="Ellipse 53" cx="5.5" cy="5.5" r="5.5" transform="translate(-537 667)" fill="#f8fcff"/>
      <circle id="Ellipse_54-8" data-name="Ellipse 54" cx="5.5" cy="5.5" r="5.5" transform="translate(-506 667)" fill="#f8fcff"/>
      <circle id="Ellipse_55-8" data-name="Ellipse 55" cx="5.5" cy="5.5" r="5.5" transform="translate(-476 667)" fill="#f8fcff"/>
      <circle id="Ellipse_56-8" data-name="Ellipse 56" cx="5.5" cy="5.5" r="5.5" transform="translate(-447 667)" fill="#f8fcff"/>
      <circle id="Ellipse_57-8" data-name="Ellipse 57" cx="5.5" cy="5.5" r="5.5" transform="translate(-417 667)" fill="#f8fcff"/>
      <circle id="Ellipse_58-8" data-name="Ellipse 58" cx="5.5" cy="5.5" r="5.5" transform="translate(-386 667)" fill="#f8fcff"/>
      <circle id="Ellipse_59-8" data-name="Ellipse 59" cx="5.5" cy="5.5" r="5.5" transform="translate(-356 667)" fill="#f8fcff"/>
      <circle id="Ellipse_60-8" data-name="Ellipse 60" cx="5.5" cy="5.5" r="5.5" transform="translate(-329 667)" fill="#f8fcff"/>
    </g>
    <g id="Group_40-9" data-name="Group 40" transform="translate(0 248)">
      <circle id="Ellipse_44-9" data-name="Ellipse 44" cx="5.5" cy="5.5" r="5.5" transform="translate(-808 667)" fill="#f8fcff"/>
      <circle id="Ellipse_45-9" data-name="Ellipse 45" cx="5.5" cy="5.5" r="5.5" transform="translate(-778 667)" fill="#f8fcff"/>
      <circle id="Ellipse_46-9" data-name="Ellipse 46" cx="5.5" cy="5.5" r="5.5" transform="translate(-748 667)" fill="#f8fcff"/>
      <circle id="Ellipse_47-9" data-name="Ellipse 47" cx="5.5" cy="5.5" r="5.5" transform="translate(-718 667)" fill="#f8fcff"/>
      <circle id="Ellipse_48-9" data-name="Ellipse 48" cx="5.5" cy="5.5" r="5.5" transform="translate(-687 667)" fill="#f8fcff"/>
      <circle id="Ellipse_49-9" data-name="Ellipse 49" cx="5.5" cy="5.5" r="5.5" transform="translate(-658 667)" fill="#f8fcff"/>
      <circle id="Ellipse_50-9" data-name="Ellipse 50" cx="5.5" cy="5.5" r="5.5" transform="translate(-628 667)" fill="#f8fcff"/>
      <circle id="Ellipse_51-9" data-name="Ellipse 51" cx="5.5" cy="5.5" r="5.5" transform="translate(-597 667)" fill="#f8fcff"/>
      <ellipse id="Ellipse_52-9" data-name="Ellipse 52" cx="5" cy="5.5" rx="5" ry="5.5" transform="translate(-566 667)" fill="#f8fcff"/>
      <circle id="Ellipse_53-9" data-name="Ellipse 53" cx="5.5" cy="5.5" r="5.5" transform="translate(-537 667)" fill="#f8fcff"/>
      <circle id="Ellipse_54-9" data-name="Ellipse 54" cx="5.5" cy="5.5" r="5.5" transform="translate(-506 667)" fill="#f8fcff"/>
      <circle id="Ellipse_55-9" data-name="Ellipse 55" cx="5.5" cy="5.5" r="5.5" transform="translate(-476 667)" fill="#f8fcff"/>
      <circle id="Ellipse_56-9" data-name="Ellipse 56" cx="5.5" cy="5.5" r="5.5" transform="translate(-447 667)" fill="#f8fcff"/>
      <circle id="Ellipse_57-9" data-name="Ellipse 57" cx="5.5" cy="5.5" r="5.5" transform="translate(-417 667)" fill="#f8fcff"/>
      <circle id="Ellipse_58-9" data-name="Ellipse 58" cx="5.5" cy="5.5" r="5.5" transform="translate(-386 667)" fill="#f8fcff"/>
      <circle id="Ellipse_59-9" data-name="Ellipse 59" cx="5.5" cy="5.5" r="5.5" transform="translate(-356 667)" fill="#f8fcff"/>
      <circle id="Ellipse_60-9" data-name="Ellipse 60" cx="5.5" cy="5.5" r="5.5" transform="translate(-329 667)" fill="#f8fcff"/>
    </g>
    <g id="Group_40-10" data-name="Group 40" transform="translate(0 279)">
      <circle id="Ellipse_44-10" data-name="Ellipse 44" cx="5.5" cy="5.5" r="5.5" transform="translate(-808 667)" fill="#f8fcff"/>
      <circle id="Ellipse_45-10" data-name="Ellipse 45" cx="5.5" cy="5.5" r="5.5" transform="translate(-778 667)" fill="#f8fcff"/>
      <circle id="Ellipse_46-10" data-name="Ellipse 46" cx="5.5" cy="5.5" r="5.5" transform="translate(-748 667)" fill="#f8fcff"/>
      <circle id="Ellipse_47-10" data-name="Ellipse 47" cx="5.5" cy="5.5" r="5.5" transform="translate(-718 667)" fill="#f8fcff"/>
      <circle id="Ellipse_48-10" data-name="Ellipse 48" cx="5.5" cy="5.5" r="5.5" transform="translate(-687 667)" fill="#f8fcff"/>
      <circle id="Ellipse_49-10" data-name="Ellipse 49" cx="5.5" cy="5.5" r="5.5" transform="translate(-658 667)" fill="#f8fcff"/>
      <circle id="Ellipse_50-10" data-name="Ellipse 50" cx="5.5" cy="5.5" r="5.5" transform="translate(-628 667)" fill="#f8fcff"/>
      <circle id="Ellipse_51-10" data-name="Ellipse 51" cx="5.5" cy="5.5" r="5.5" transform="translate(-597 667)" fill="#f8fcff"/>
      <ellipse id="Ellipse_52-10" data-name="Ellipse 52" cx="5" cy="5.5" rx="5" ry="5.5" transform="translate(-566 667)" fill="#f8fcff"/>
      <circle id="Ellipse_53-10" data-name="Ellipse 53" cx="5.5" cy="5.5" r="5.5" transform="translate(-537 667)" fill="#f8fcff"/>
      <circle id="Ellipse_54-10" data-name="Ellipse 54" cx="5.5" cy="5.5" r="5.5" transform="translate(-506 667)" fill="#f8fcff"/>
      <circle id="Ellipse_55-10" data-name="Ellipse 55" cx="5.5" cy="5.5" r="5.5" transform="translate(-476 667)" fill="#f8fcff"/>
      <circle id="Ellipse_56-10" data-name="Ellipse 56" cx="5.5" cy="5.5" r="5.5" transform="translate(-447 667)" fill="#f8fcff"/>
      <circle id="Ellipse_57-10" data-name="Ellipse 57" cx="5.5" cy="5.5" r="5.5" transform="translate(-417 667)" fill="#f8fcff"/>
      <circle id="Ellipse_58-10" data-name="Ellipse 58" cx="5.5" cy="5.5" r="5.5" transform="translate(-386 667)" fill="#f8fcff"/>
      <circle id="Ellipse_59-10" data-name="Ellipse 59" cx="5.5" cy="5.5" r="5.5" transform="translate(-356 667)" fill="#f8fcff"/>
      <circle id="Ellipse_60-10" data-name="Ellipse 60" cx="5.5" cy="5.5" r="5.5" transform="translate(-329 667)" fill="#f8fcff"/>
    </g>
    <g id="Group_40-11" data-name="Group 40" transform="translate(0 310)">
      <circle id="Ellipse_44-11" data-name="Ellipse 44" cx="5.5" cy="5.5" r="5.5" transform="translate(-808 667)" fill="#f8fcff"/>
      <circle id="Ellipse_45-11" data-name="Ellipse 45" cx="5.5" cy="5.5" r="5.5" transform="translate(-778 667)" fill="#f8fcff"/>
      <circle id="Ellipse_46-11" data-name="Ellipse 46" cx="5.5" cy="5.5" r="5.5" transform="translate(-748 667)" fill="#f8fcff"/>
      <circle id="Ellipse_47-11" data-name="Ellipse 47" cx="5.5" cy="5.5" r="5.5" transform="translate(-718 667)" fill="#f8fcff"/>
      <circle id="Ellipse_48-11" data-name="Ellipse 48" cx="5.5" cy="5.5" r="5.5" transform="translate(-687 667)" fill="#f8fcff"/>
      <circle id="Ellipse_49-11" data-name="Ellipse 49" cx="5.5" cy="5.5" r="5.5" transform="translate(-658 667)" fill="#f8fcff"/>
      <circle id="Ellipse_50-11" data-name="Ellipse 50" cx="5.5" cy="5.5" r="5.5" transform="translate(-628 667)" fill="#f8fcff"/>
      <circle id="Ellipse_51-11" data-name="Ellipse 51" cx="5.5" cy="5.5" r="5.5" transform="translate(-597 667)" fill="#f8fcff"/>
      <ellipse id="Ellipse_52-11" data-name="Ellipse 52" cx="5" cy="5.5" rx="5" ry="5.5" transform="translate(-566 667)" fill="#f8fcff"/>
      <circle id="Ellipse_53-11" data-name="Ellipse 53" cx="5.5" cy="5.5" r="5.5" transform="translate(-537 667)" fill="#f8fcff"/>
      <circle id="Ellipse_54-11" data-name="Ellipse 54" cx="5.5" cy="5.5" r="5.5" transform="translate(-506 667)" fill="#f8fcff"/>
      <circle id="Ellipse_55-11" data-name="Ellipse 55" cx="5.5" cy="5.5" r="5.5" transform="translate(-476 667)" fill="#f8fcff"/>
      <circle id="Ellipse_56-11" data-name="Ellipse 56" cx="5.5" cy="5.5" r="5.5" transform="translate(-447 667)" fill="#f8fcff"/>
      <circle id="Ellipse_57-11" data-name="Ellipse 57" cx="5.5" cy="5.5" r="5.5" transform="translate(-417 667)" fill="#f8fcff"/>
      <circle id="Ellipse_58-11" data-name="Ellipse 58" cx="5.5" cy="5.5" r="5.5" transform="translate(-386 667)" fill="#f8fcff"/>
      <circle id="Ellipse_59-11" data-name="Ellipse 59" cx="5.5" cy="5.5" r="5.5" transform="translate(-356 667)" fill="#f8fcff"/>
      <circle id="Ellipse_60-11" data-name="Ellipse 60" cx="5.5" cy="5.5" r="5.5" transform="translate(-329 667)" fill="#f8fcff"/>
    </g>
    <g id="Group_40-12" data-name="Group 40" transform="translate(0 341)">
      <circle id="Ellipse_44-12" data-name="Ellipse 44" cx="5.5" cy="5.5" r="5.5" transform="translate(-808 667)" fill="#f8fcff"/>
      <circle id="Ellipse_45-12" data-name="Ellipse 45" cx="5.5" cy="5.5" r="5.5" transform="translate(-778 667)" fill="#f8fcff"/>
      <circle id="Ellipse_46-12" data-name="Ellipse 46" cx="5.5" cy="5.5" r="5.5" transform="translate(-748 667)" fill="#f8fcff"/>
      <circle id="Ellipse_47-12" data-name="Ellipse 47" cx="5.5" cy="5.5" r="5.5" transform="translate(-718 667)" fill="#f8fcff"/>
      <circle id="Ellipse_48-12" data-name="Ellipse 48" cx="5.5" cy="5.5" r="5.5" transform="translate(-687 667)" fill="#f8fcff"/>
      <circle id="Ellipse_49-12" data-name="Ellipse 49" cx="5.5" cy="5.5" r="5.5" transform="translate(-658 667)" fill="#f8fcff"/>
      <circle id="Ellipse_50-12" data-name="Ellipse 50" cx="5.5" cy="5.5" r="5.5" transform="translate(-628 667)" fill="#f8fcff"/>
      <circle id="Ellipse_51-12" data-name="Ellipse 51" cx="5.5" cy="5.5" r="5.5" transform="translate(-597 667)" fill="#f8fcff"/>
      <ellipse id="Ellipse_52-12" data-name="Ellipse 52" cx="5" cy="5.5" rx="5" ry="5.5" transform="translate(-566 667)" fill="#f8fcff"/>
      <circle id="Ellipse_53-12" data-name="Ellipse 53" cx="5.5" cy="5.5" r="5.5" transform="translate(-537 667)" fill="#f8fcff"/>
      <circle id="Ellipse_54-12" data-name="Ellipse 54" cx="5.5" cy="5.5" r="5.5" transform="translate(-506 667)" fill="#f8fcff"/>
      <circle id="Ellipse_55-12" data-name="Ellipse 55" cx="5.5" cy="5.5" r="5.5" transform="translate(-476 667)" fill="#f8fcff"/>
      <circle id="Ellipse_56-12" data-name="Ellipse 56" cx="5.5" cy="5.5" r="5.5" transform="translate(-447 667)" fill="#f8fcff"/>
      <circle id="Ellipse_57-12" data-name="Ellipse 57" cx="5.5" cy="5.5" r="5.5" transform="translate(-417 667)" fill="#f8fcff"/>
      <circle id="Ellipse_58-12" data-name="Ellipse 58" cx="5.5" cy="5.5" r="5.5" transform="translate(-386 667)" fill="#f8fcff"/>
      <circle id="Ellipse_59-12" data-name="Ellipse 59" cx="5.5" cy="5.5" r="5.5" transform="translate(-356 667)" fill="#f8fcff"/>
      <circle id="Ellipse_60-12" data-name="Ellipse 60" cx="5.5" cy="5.5" r="5.5" transform="translate(-329 667)" fill="#f8fcff"/>
    </g>
    <g id="Group_40-13" data-name="Group 40" transform="translate(0 372)">
      <circle id="Ellipse_44-13" data-name="Ellipse 44" cx="5.5" cy="5.5" r="5.5" transform="translate(-808 667)" fill="#f8fcff"/>
      <circle id="Ellipse_45-13" data-name="Ellipse 45" cx="5.5" cy="5.5" r="5.5" transform="translate(-778 667)" fill="#f8fcff"/>
      <circle id="Ellipse_46-13" data-name="Ellipse 46" cx="5.5" cy="5.5" r="5.5" transform="translate(-748 667)" fill="#f8fcff"/>
      <circle id="Ellipse_47-13" data-name="Ellipse 47" cx="5.5" cy="5.5" r="5.5" transform="translate(-718 667)" fill="#f8fcff"/>
      <circle id="Ellipse_48-13" data-name="Ellipse 48" cx="5.5" cy="5.5" r="5.5" transform="translate(-687 667)" fill="#f8fcff"/>
      <circle id="Ellipse_49-13" data-name="Ellipse 49" cx="5.5" cy="5.5" r="5.5" transform="translate(-658 667)" fill="#f8fcff"/>
      <circle id="Ellipse_50-13" data-name="Ellipse 50" cx="5.5" cy="5.5" r="5.5" transform="translate(-628 667)" fill="#f8fcff"/>
      <circle id="Ellipse_51-13" data-name="Ellipse 51" cx="5.5" cy="5.5" r="5.5" transform="translate(-597 667)" fill="#f8fcff"/>
      <ellipse id="Ellipse_52-13" data-name="Ellipse 52" cx="5" cy="5.5" rx="5" ry="5.5" transform="translate(-566 667)" fill="#f8fcff"/>
      <circle id="Ellipse_53-13" data-name="Ellipse 53" cx="5.5" cy="5.5" r="5.5" transform="translate(-537 667)" fill="#f8fcff"/>
      <circle id="Ellipse_54-13" data-name="Ellipse 54" cx="5.5" cy="5.5" r="5.5" transform="translate(-506 667)" fill="#f8fcff"/>
      <circle id="Ellipse_55-13" data-name="Ellipse 55" cx="5.5" cy="5.5" r="5.5" transform="translate(-476 667)" fill="#f8fcff"/>
      <circle id="Ellipse_56-13" data-name="Ellipse 56" cx="5.5" cy="5.5" r="5.5" transform="translate(-447 667)" fill="#f8fcff"/>
      <circle id="Ellipse_57-13" data-name="Ellipse 57" cx="5.5" cy="5.5" r="5.5" transform="translate(-417 667)" fill="#f8fcff"/>
      <circle id="Ellipse_58-13" data-name="Ellipse 58" cx="5.5" cy="5.5" r="5.5" transform="translate(-386 667)" fill="#f8fcff"/>
      <circle id="Ellipse_59-13" data-name="Ellipse 59" cx="5.5" cy="5.5" r="5.5" transform="translate(-356 667)" fill="#f8fcff"/>
      <circle id="Ellipse_60-13" data-name="Ellipse 60" cx="5.5" cy="5.5" r="5.5" transform="translate(-329 667)" fill="#f8fcff"/>
    </g>
    <g id="Group_40-14" data-name="Group 40" transform="translate(0 403)">
      <circle id="Ellipse_44-14" data-name="Ellipse 44" cx="5.5" cy="5.5" r="5.5" transform="translate(-808 667)" fill="#f8fcff"/>
      <circle id="Ellipse_45-14" data-name="Ellipse 45" cx="5.5" cy="5.5" r="5.5" transform="translate(-778 667)" fill="#f8fcff"/>
      <circle id="Ellipse_46-14" data-name="Ellipse 46" cx="5.5" cy="5.5" r="5.5" transform="translate(-748 667)" fill="#f8fcff"/>
      <circle id="Ellipse_47-14" data-name="Ellipse 47" cx="5.5" cy="5.5" r="5.5" transform="translate(-718 667)" fill="#f8fcff"/>
      <circle id="Ellipse_48-14" data-name="Ellipse 48" cx="5.5" cy="5.5" r="5.5" transform="translate(-687 667)" fill="#f8fcff"/>
      <circle id="Ellipse_49-14" data-name="Ellipse 49" cx="5.5" cy="5.5" r="5.5" transform="translate(-658 667)" fill="#f8fcff"/>
      <circle id="Ellipse_50-14" data-name="Ellipse 50" cx="5.5" cy="5.5" r="5.5" transform="translate(-628 667)" fill="#f8fcff"/>
      <circle id="Ellipse_51-14" data-name="Ellipse 51" cx="5.5" cy="5.5" r="5.5" transform="translate(-597 667)" fill="#f8fcff"/>
      <ellipse id="Ellipse_52-14" data-name="Ellipse 52" cx="5" cy="5.5" rx="5" ry="5.5" transform="translate(-566 667)" fill="#f8fcff"/>
      <circle id="Ellipse_53-14" data-name="Ellipse 53" cx="5.5" cy="5.5" r="5.5" transform="translate(-537 667)" fill="#f8fcff"/>
      <circle id="Ellipse_54-14" data-name="Ellipse 54" cx="5.5" cy="5.5" r="5.5" transform="translate(-506 667)" fill="#f8fcff"/>
      <circle id="Ellipse_55-14" data-name="Ellipse 55" cx="5.5" cy="5.5" r="5.5" transform="translate(-476 667)" fill="#f8fcff"/>
      <circle id="Ellipse_56-14" data-name="Ellipse 56" cx="5.5" cy="5.5" r="5.5" transform="translate(-447 667)" fill="#f8fcff"/>
      <circle id="Ellipse_57-14" data-name="Ellipse 57" cx="5.5" cy="5.5" r="5.5" transform="translate(-417 667)" fill="#f8fcff"/>
      <circle id="Ellipse_58-14" data-name="Ellipse 58" cx="5.5" cy="5.5" r="5.5" transform="translate(-386 667)" fill="#f8fcff"/>
      <circle id="Ellipse_59-14" data-name="Ellipse 59" cx="5.5" cy="5.5" r="5.5" transform="translate(-356 667)" fill="#f8fcff"/>
      <circle id="Ellipse_60-14" data-name="Ellipse 60" cx="5.5" cy="5.5" r="5.5" transform="translate(-329 667)" fill="#f8fcff"/>
    </g>
  </g>
</svg>
